<svg xmlns="http://www.w3.org/2000/svg" viewBox="0 0 480.33 128.53"><defs><style>.a{fill:#ff2c14;}.b{fill:#fff;}</style></defs><title>logo-on-dark</title><path class="a" d="M7.2,24.23,2.29,23V20.4h9.19l1.4,6.38h.25a14.09,14.09,0,0,1,4.94-5.14,12.51,12.51,0,0,1,6.6-1.88,10.48,10.48,0,0,1,4.69,1,7.16,7.16,0,0,1,3,2.46A14.07,14.07,0,0,1,34,27.41a15.23,15.23,0,0,1,5.29-5.64,13,13,0,0,1,6.95-2,10.38,10.38,0,0,1,4.59,1,7.44,7.44,0,0,1,3.13,2.71,8.54,8.54,0,0,1,1,2.17,20.4,20.4,0,0,1,.64,3.15c.17,1.26.29,2.74.35,4.44s.1,3.69.1,6V51l4.9,1.21v2.62H45.52V52.21L49.79,51V36.79q0-4.08-.22-6.16a9.84,9.84,0,0,0-.8-3.22,5.54,5.54,0,0,0-5.35-3.12,7.9,7.9,0,0,0-3.16.64,9.74,9.74,0,0,0-2.71,1.72,7.92,7.92,0,0,0-2.07,3,13.92,13.92,0,0,0-.8,4.37V51L39,52.21v2.62H24.23V52.21L28.5,51V36.79q0-4.08-.23-6.16a9.61,9.61,0,0,0-.79-3.22,5.55,5.55,0,0,0-5.36-3.12,7.85,7.85,0,0,0-3.15.64,9.59,9.59,0,0,0-2.71,1.72,7.81,7.81,0,0,0-2.07,3,13.64,13.64,0,0,0-.8,4.37V51l4.27,1.21v2.62H2.29V52.21L7.2,51Z"/><path class="a" d="M64.45,23V20.4h11.1V51l4.91,1.21v2.62h-16V52.21L69.36,51V24.23Zm4-12.88a4.05,4.05,0,0,1,1-2.94,3.86,3.86,0,0,1,2.9-1.08A4,4,0,0,1,75.36,7.2a4,4,0,0,1,1.08,2.94A3.86,3.86,0,0,1,75.36,13a4.05,4.05,0,0,1-2.94,1.05A3.92,3.92,0,0,1,69.52,13,3.92,3.92,0,0,1,68.47,10.14Z"/><path class="a" d="M89.25,24.23,84.34,23V20.4h9.18l1.41,6.38h.25a14.28,14.28,0,0,1,5.13-5.14,13.67,13.67,0,0,1,7-1.88,11.32,11.32,0,0,1,4.59.9,7.74,7.74,0,0,1,3.25,2.55,12,12,0,0,1,1.81,5,55,55,0,0,1,.55,8.7V51l4.9,1.21v2.62H107V52.21L111.31,51V36.79q0-4.08-.22-6.16a9.84,9.84,0,0,0-.8-3.22q-1.59-3.12-5.61-3.12a9.37,9.37,0,0,0-3.44.64,9.93,9.93,0,0,0-2.93,1.72,8,8,0,0,0-2.08,3A14,14,0,0,0,95.44,34V51l4.27,1.21v2.62H84.34V52.21L89.25,51Z"/><path class="b" d="M9.82,79.58,2.89,77.87v-5H18.54l2,9h.36a19.62,19.62,0,0,1,7-7.24,17.54,17.54,0,0,1,9.3-2.65,14.79,14.79,0,0,1,6.61,1.39,10.19,10.19,0,0,1,4.18,3.47,19.58,19.58,0,0,1,2.34,5.93,21.55,21.55,0,0,1,7.46-8,18.33,18.33,0,0,1,9.8-2.83A14.67,14.67,0,0,1,74,73.33a10.45,10.45,0,0,1,4.4,3.82,12.21,12.21,0,0,1,1.35,3.06,29.87,29.87,0,0,1,.9,4.45c.24,1.77.41,3.86.5,6.25s.13,5.22.13,8.45v15.29l6.92,1.71v5H63.86v-5l6-1.71V97.3c0-1.92,0-3.59-.09-5s-.15-2.64-.27-3.69A20.91,20.91,0,0,0,69.07,86a11.6,11.6,0,0,0-.63-1.89,5.92,5.92,0,0,0-2.38-3,6.12,6.12,0,0,0-3.1-.86,12.51,12.51,0,0,0-4.14.63A10.52,10.52,0,0,0,55.31,83a11.24,11.24,0,0,0-2.92,4.18,19.49,19.49,0,0,0-1.12,6.16v21.31l6,1.71v5H33.82v-5l6-1.71V97.3c0-1.92,0-3.59-.09-5s-.15-2.64-.27-3.69A20.91,20.91,0,0,0,39,86a11.6,11.6,0,0,0-.63-1.89,5.92,5.92,0,0,0-2.38-3,6.15,6.15,0,0,0-3.1-.86,12.51,12.51,0,0,0-4.14.63A10.52,10.52,0,0,0,25.28,83a11.13,11.13,0,0,0-2.92,4.18,19.49,19.49,0,0,0-1.12,6.16v21.31l6,1.71v5H2.89v-5l6.93-1.71Z"/><path class="b" d="M104.77,98.38a25.08,25.08,0,0,0,1.8,10.16,10.05,10.05,0,0,0,9.89,6.38,18.94,18.94,0,0,0,7.91-1.75,17.11,17.11,0,0,0,6.65-5.44l4.86,3.77a26.66,26.66,0,0,1-8.5,7.65,25.53,25.53,0,0,1-13.17,3.14,22.82,22.82,0,0,1-11.37-2.65,17.47,17.47,0,0,1-7.24-7.78,24.18,24.18,0,0,1-2-6.16A40.39,40.39,0,0,1,93,98.29q0-12.6,5.75-19.47t16.46-6.88A24.9,24.9,0,0,1,124,73.42a17.91,17.91,0,0,1,10.93,11,26.09,26.09,0,0,1,1.48,9c0,.66,0,1.3,0,1.93s-.1,1.64-.22,3ZM115,78.14q-9.27,0-10.16,14.48h19.78V90.28q0-5.84-2.52-9A8.57,8.57,0,0,0,115,78.14Z"/><path class="b" d="M176.52,114.65,164.65,98.82l-5,4.23v11.6l6.92,1.71v5H141.28v-5l6.92-1.71V58l-6.92-1.71v-5h18.34V96L174.9,79.49l-4.67-1.62v-5h22v5l-7.91,1.71L172,92.17l16.81,22.66,4.77,1.53v5H171.22v-5Z"/><path class="b" d="M197,110.78a12.65,12.65,0,0,1,1.67-6.52,15,15,0,0,1,5.12-5,35.28,35.28,0,0,1,8.81-3.68,109.14,109.14,0,0,1,12.73-2.7,52.71,52.71,0,0,0-1-6.88,17.08,17.08,0,0,0-1.57-4.18,11.78,11.78,0,0,0-2.92-3.33,7,7,0,0,0-4.27-1.26,8.26,8.26,0,0,0-3.47.72,3.92,3.92,0,0,0-2.11,2,3.86,3.86,0,0,1,1.75,2,6.55,6.55,0,0,1,.5,2.29,5.23,5.23,0,0,1-2,4A6.93,6.93,0,0,1,205.48,90,5.54,5.54,0,0,1,201,88.17a6.92,6.92,0,0,1-1.57-4.63,8.35,8.35,0,0,1,1.53-5A12.88,12.88,0,0,1,205,75a20.66,20.66,0,0,1,5.62-2.25,26.46,26.46,0,0,1,6.25-.76,22.26,22.26,0,0,1,7.59,1.21,17,17,0,0,1,5.44,3q7.11,6.28,7.11,20v11.69a21.6,21.6,0,0,0,.58,6.16,2.43,2.43,0,0,0,2.56,1.66h4v4q-8.28,2.59-12.5,2.6a5.77,5.77,0,0,1-2.47-.45,3.21,3.21,0,0,1-1.49-1.53,9.35,9.35,0,0,1-.76-3,42.76,42.76,0,0,1-.22-4.86h-.36a20.21,20.21,0,0,1-7.38,7.2,19.73,19.73,0,0,1-9.89,2.6q-5.66,0-8.9-3.05T197,110.78Zm17.63,5a9.17,9.17,0,0,0,4.18-1.21,11.81,11.81,0,0,0,4-3.56,13.85,13.85,0,0,0,1.89-3.59,15.54,15.54,0,0,0,.9-5.58c0-.72,0-1.51-.09-2.38s-.15-1.72-.27-2.56A59.45,59.45,0,0,0,217.48,99a20.86,20.86,0,0,0-5,2.47,8,8,0,0,0-2.7,3.1,9.48,9.48,0,0,0-.81,4q0,3.94,1.8,5.57A5.69,5.69,0,0,0,214.65,115.73Z"/><path class="b" d="M253.4,79.58l-6.92-1.71v-5h15.64l2,9h.36a19.94,19.94,0,0,1,7.24-7.24,19.17,19.17,0,0,1,9.84-2.65A16,16,0,0,1,288,73.2a10.92,10.92,0,0,1,4.58,3.6,16.93,16.93,0,0,1,2.57,7,77.61,77.61,0,0,1,.76,12.28v18.52l6.93,1.71v5H278.49v-5l6-1.71V97.3q0-5.4-.31-8.41a16,16,0,0,0-1.13-4.81,6.21,6.21,0,0,0-2.69-3.24,8.58,8.58,0,0,0-4.05-.9,10.45,10.45,0,0,0-7.46,2.88q-3.69,3.42-4.05,10.52v21.31l6,1.71v5H246.48v-5l6.92-1.71Z"/><path class="b" d="M307.08,77.87v-5h18.34v41.81l6.93,1.71v5H307.08v-5l6.92-1.71V79.58ZM313,59.17a6.39,6.39,0,0,1,1.75-4.67,6.52,6.52,0,0,1,4.9-1.8,6.65,6.65,0,0,1,4.94,1.8,7,7,0,0,1,.05,9.3,6.75,6.75,0,0,1-5,1.76,6.6,6.6,0,0,1-4.95-1.76A6.34,6.34,0,0,1,313,59.17Z"/><path class="b" d="M371,114.65,359.14,98.82l-5,4.23v11.6l6.92,1.71v5H335.76v-5l6.93-1.71V58l-6.93-1.71v-5h18.35V96l15.28-16.55-4.67-1.62v-5h22v5l-7.92,1.71L366.52,92.17l16.81,22.66,4.77,1.53v5H365.71v-5Z"/><path class="b" d="M402.12,98.38a25.08,25.08,0,0,0,1.8,10.16,10.07,10.07,0,0,0,9.89,6.38,18.91,18.91,0,0,0,7.91-1.75,17.21,17.21,0,0,0,6.66-5.44l4.85,3.77a26.73,26.73,0,0,1-8.49,7.65,25.59,25.59,0,0,1-13.18,3.14,22.87,22.87,0,0,1-11.37-2.65,17.52,17.52,0,0,1-7.24-7.78,24.18,24.18,0,0,1-2-6.16,40.39,40.39,0,0,1-.63-7.41q0-12.6,5.76-19.47t16.45-6.88a24.86,24.86,0,0,1,8.81,1.48,17.91,17.91,0,0,1,10.93,11,25.86,25.86,0,0,1,1.48,9c0,.66,0,1.3,0,1.93s-.11,1.64-.23,3Zm10.25-20.24q-9.25,0-10.16,14.48H422V90.28q0-5.84-2.51-9A8.59,8.59,0,0,0,412.37,78.14Z"/><path class="b" d="M466.59,79.4a2.79,2.79,0,0,0-1.71.72,11.14,11.14,0,0,0-1.75,1.8,16.91,16.91,0,0,0-1.53,2.29,18.93,18.93,0,0,0-1,2.12q-1.08,3.15-1.89,6.34a32.46,32.46,0,0,0-.81,7.86v14.12l9.71,1.71v5H439.53v-5l6.92-1.71V78.23l-6.92-1.7V72.84h15.64l2,11.87h.36A22.71,22.71,0,0,1,463,75.22a11,11,0,0,1,7.78-3.28,8.17,8.17,0,0,1,5.84,2.2A7.7,7.7,0,0,1,479,80a8.08,8.08,0,0,1-1.62,4.9,5.34,5.34,0,0,1-4.58,2.21q-3.69,0-5.17-1.67a5.36,5.36,0,0,1-1.49-3.64,4.85,4.85,0,0,1,.09-1C466.29,80.53,466.41,80.06,466.59,79.4Z"/></svg>