<svg xmlns="http://www.w3.org/2000/svg" viewBox="0 0 245.9 188.98"><defs><style>.a{fill:#ff2c14;}.b{fill:#f6fafd;}.c{fill:#eff7fb;}.d{fill:#ffd9d7;}.e{fill:#f4f9fc;}.f{fill:#eff6fb;}.g{fill:#f2f8fc;}</style></defs><title>step-2-date-place</title><path class="a" d="M123.79,5.1H232.28c2.39,0,4.73.08,6.91,1.27C243.3,8.6,245.7,12,246,16.7c0,.67,0,1.36,0,2q0,66,0,131.94a13.5,13.5,0,0,1-1.33,6.88,12,12,0,0,1-9.85,6.58c-1.08.1-2.18.05-3.26.05H145.91c-.48,0-1,0-1.43,0-1-.06-1.57.11-1.37,1.33a3.32,3.32,0,0,1-1.23,2.88c-1.15,1.16-2.33,2.29-3.45,3.47-1,1-1,1.18,0,2.18.79.84,1.65,1.61,2.44,2.46,1.57,1.69,1.55,2.89-.08,4.55-1.86,1.9-3.73,3.77-5.62,5.63-1.63,1.58-2.89,1.57-4.58,0-.84-.79-1.66-1.6-2.45-2.45s-1.3-.8-2,0a45.17,45.17,0,0,1-3.48,3.44,5.88,5.88,0,0,1-2.45,1.3,2.47,2.47,0,0,1-2.83-1.51c-1-2.13-2-4.26-3-6.42q-3.34-7.62-6.64-15.27a2.26,2.26,0,0,0-2.46-1.58c-2.71.12-5.44.1-8.15,0a2.39,2.39,0,0,0-2.51,1.55c-1.26,2.47-2.69,4.86-4,7.31-.46.86-1,1.22-2,.71-.75-.4-1-.81-.52-1.6,1.13-2,2.22-4,3.33-6L92,165c.25-.46.16-.78-.42-.8s-1.22,0-1.83,0q-37.53,0-75.05,0a13.42,13.42,0,0,1-7.06-1.45A12,12,0,0,1,1.28,153c-.06-.81,0-1.63,0-2.44q0-66,0-131.94a13.34,13.34,0,0,1,1.26-6.7A11.94,11.94,0,0,1,12.65,5.14c1.08-.07,2.18,0,3.26,0Zm-.06,24.5q-58.83,0-117.66,0c-2.66,0-2.35-.3-2.35,2.42q0,59.14,0,118.27c0,.55,0,1.09,0,1.63a11.4,11.4,0,0,0,1.58,5.2c2.08,3.3,5.24,4.59,9,4.59q38.85,0,77.7,0c.27,0,.54,0,.81,0a1.48,1.48,0,0,0,1.59-1c.63-1.28,1.41-2.48,2-3.76.5-1,1.09-.94,2-.46s.7,1.14.29,1.85-.93,1.65-1.38,2.48c-.24.45-.17.82.41.83q3.68,0,7.34,0c.55,0,.7-.31.48-.8s-.34-.74-.5-1.12c-1.64-3.79-3.32-7.57-4.9-11.39-.26-.62-.44-1.75-.12-2a3.68,3.68,0,0,1,2.22-.45,4.34,4.34,0,0,1,1.53.52c1.92.83,3.85,1.66,5.76,2.51q13.47,5.94,26.93,11.91a10.79,10.79,0,0,0,4.53.9q45.27,0,90.54,0c.74,0,1.49,0,2.24,0,3.59-.27,6.58-1.69,8.4-4.91a12,12,0,0,0,1.4-6.07q0-59.34,0-118.68c0-2.81.32-2.45-2.53-2.45Q182.36,29.59,123.73,29.6Zm-.11-2.47h117c.54,0,1.09,0,1.63,0,1,.1,1.28-.35,1.26-1.3,0-3,.08-6-.06-9a9.41,9.41,0,0,0-2.69-6.22,10.44,10.44,0,0,0-7.9-3.09q-31.09,0-62.18,0-78.2,0-156.38,0C8.06,7.54,3.58,12,3.7,18.1c0,2.17,0,4.35,0,6.52,0,2.83-.34,2.51,2.48,2.51Zm17,138.72a8.93,8.93,0,0,0-1.4-1.11c-1.21-.6-2.46-1.13-3.7-1.67q-14.79-6.44-29.6-12.84a13.5,13.5,0,0,0-2.21-.56,15.47,15.47,0,0,0,.61,2.27q7.23,16.56,14.49,33.09c.66,1.51,1.2,1.65,2.37.52q2.49-2.4,4.89-4.9c.72-.74,1.3-.79,2,0,1.26,1.33,2.59,2.59,3.88,3.9a1,1,0,0,0,1.72,0q2.43-2.48,4.9-4.89a1.11,1.11,0,0,0,0-1.88q-1.91-1.83-3.74-3.74c-1-1-1-1.11,0-2.15,1.56-1.61,3.16-3.17,4.74-4.76C139.9,166.81,140.16,166.41,140.6,165.85Z"/><path class="b" d="M123.62,27.13H6.19c-2.82,0-2.46.32-2.48-2.51,0-2.17,0-4.35,0-6.52C3.58,12,8.06,7.54,14.33,7.54q78.19.06,156.38,0,31.08,0,62.18,0a10.44,10.44,0,0,1,7.9,3.09,9.41,9.41,0,0,1,2.69,6.22c.14,3,0,6,.06,9,0,.95-.27,1.4-1.26,1.3-.54-.05-1.09,0-1.63,0Zm-.06-2.44H238.13c.55,0,1.09,0,1.63,0,.93.07,1.37-.21,1.34-1.24-.06-1.9.13-3.82-.06-5.71a8.19,8.19,0,0,0-2.32-5.45A9,9,0,0,0,232.23,10Q123.87,10,15.52,10a13.07,13.07,0,0,0-4.74.83,6.72,6.72,0,0,0-3.86,3.9c-1.06,2.49-.73,5.06-.76,7.61s-.3,2.35,2.42,2.35Z"/><path class="c" d="M140.6,165.85c-.44.56-.7,1-1,1.29-1.58,1.59-3.18,3.15-4.74,4.76-1,1-1,1.11,0,2.15q1.83,1.9,3.74,3.74a1.11,1.11,0,0,1,0,1.88q-2.47,2.42-4.9,4.89a1,1,0,0,1-1.72,0c-1.29-1.31-2.62-2.57-3.88-3.9-.74-.77-1.32-.72-2,0q-2.4,2.5-4.89,4.9c-1.17,1.13-1.71,1-2.37-.52q-7.25-16.53-14.49-33.09a15.47,15.47,0,0,1-.61-2.27,13.5,13.5,0,0,1,2.21.56q14.82,6.39,29.6,12.84c1.24.54,2.49,1.07,3.7,1.67A8.93,8.93,0,0,1,140.6,165.85Zm-19.48,16c.37-.3.64-.48.88-.71l3-3c2.27-2.26,2.27-2.26,4.46-.07l2.6,2.59c1.52,1.5,1.75,1.47,3.2-.11.6-.66.81-1.22.09-1.9-1.47-1.4-2.86-2.9-4.43-4.17-.84-.68-.84-1-.14-1.73,1.51-1.46,3-2.94,4.46-4.46.88-.92.81-1.31-.25-1.81l-13-6.1-12.85-6a2.8,2.8,0,0,0-.88-.1,3.6,3.6,0,0,0,.15.74c1,2.38,2.08,4.76,3.16,7.13,1.55,3.38,3.16,6.74,4.7,10.13,1.27,2.78,2.47,5.6,3.75,8.37A5.73,5.73,0,0,0,121.12,181.81Z"/><path class="a" d="M53.83,107.91H28.34c-.48,0-1,0-1.43,0-.85.06-1.29-.24-1.21-1.15,0-.41,0-.82,0-1.23V66.39c0-.27,0-.54,0-.82C25.76,64,25.76,64,27.28,64c.81,0,1.63,0,2.44,0s1-.33,1-1c0-.95,0-1.9,0-2.85,0-.75.24-1.15,1-1.15h8.36c.65,0,1,.26,1,1s0,1.63,0,2.45c0,1.54,0,1.57,1.62,1.57,5,0,10.06,0,15.09,0,2.45,0,4.9,0,7.34,0,1.49,0,1.49,0,1.55-1.45,0-.13,0-.27,0-.4,0-3.15,0-3.15,3.31-3.15,1.9,0,3.8,0,5.71,0,.88,0,1.39.18,1.37,1.24s.17,2.39.27,3.58c1.14.07,2.28.21,3.41.17s1.36.4,1.29,1.33c0,.2,0,.4,0,.61Q82,86,82,106.23c0,1.65,0,1.68-1.68,1.68Q67.08,107.93,53.83,107.91Zm0-2.47q11.72,0,23.44,0c2.54,0,2.22.22,2.25-2.33V69.27c0-.48,0-1,0-1.43.06-.85-.26-1.29-1.16-1.21-.34,0-.68,0-1,0-3.13,0-3,.32-3-2.93a6.11,6.11,0,0,0,0-1.42c-.08-.31-.42-.8-.66-.8-1.34,0-2.69.05-4,.1-.1,1-.2,2-.29,3a1.34,1.34,0,0,0,0,.2c0,1.79-.1,1.88-1.82,1.89q-13.65,0-27.31,0c-1.71,0-1.77-.1-1.81-1.89-.07-3.46-.07-3.46-3.52-3.33-.13,0-.27,0-.4,0-.76,0-1.15.29-1.1,1.07,0,.21,0,.41,0,.62,0,3.93.43,3.52-3.43,3.53-.2,0-.41,0-.61,0-.9-.08-1.23.37-1.16,1.22,0,.27,0,.54,0,.81v34.86c0,1.91,0,1.92,2.05,1.92Z"/><path class="a" d="M221.51,77.89c.14,5-1.55,9.43-3.48,13.77-3.37,7.61-8.05,14.41-13.08,21-1.07,1.4-2.23,2.72-3.3,4.12-.68.9-1.23.86-1.9,0-2-2.58-4.08-5.07-6-7.7a97.17,97.17,0,0,1-10.41-17.42c-2.13-4.79-3.68-9.69-3.49-15.07.26-7.62,5.47-15.74,13.21-18.71a20.52,20.52,0,0,1,25.7,9.28A19.6,19.6,0,0,1,221.51,77.89Zm-39.14,1.25a34,34,0,0,0,3,10.74c3.64,8.3,8.85,15.65,14.31,22.83.86,1.12,1.19,1.1,2.11-.21,3-4.31,6.21-8.55,9-13a58.77,58.77,0,0,0,7.3-15.79,19,19,0,0,0-1.58-15.13c-3.93-6.89-10.56-10.34-17.74-9.53C188.7,60.2,182.31,69.18,182.37,79.14Z"/><path class="a" d="M131,58.94c13.23-.36,24.54,11.19,24.51,24.54a24.57,24.57,0,0,1-49.14-.11C106.42,70.12,117.67,58.52,131,58.94ZM131,61.41a22,22,0,1,0,22,22A22,22,0,0,0,131,61.41Z"/><path class="a" d="M114.3,145.31c-1.23.1-1.5-.48-1.61-1.21s-.08-1.21.87-1.47c4.74-1.29,9.46-2.69,14.18-4.06l2.71-.77c1.06-.3,1.2.49,1.46,1.2.32.87,0,1.23-.84,1.45-3.31.93-6.61,1.9-9.91,2.87-1.94.57-3.86,1.17-5.8,1.75C114.91,145.2,114.44,145.28,114.3,145.31Z"/><path class="a" d="M119.44,120.87c-.22.46-.33.71-.46.94q-4.23,7.63-8.45,15.27c-.37.67-.77,1.16-1.58.57-.63-.45-1.5-.68-.83-1.83,1.82-3.17,3.53-6.39,5.29-9.59,1.09-2,2.21-3.88,3.27-5.85A.88.88,0,0,1,118,120C118.52,120.21,119,120.57,119.44,120.87Z"/><path class="a" d="M96.37,118.35a3.5,3.5,0,0,1,.52.83c.49,1.54.94,3.1,1.38,4.65,1.13,4,2.21,8.06,3.43,12.06.32,1.06,0,1.48-.89,1.84s-1.37.1-1.62-.84c-.73-2.67-1.52-5.31-2.28-8-.82-2.85-1.64-5.69-2.44-8.55C94.14,119.2,94.94,118.27,96.37,118.35Z"/><path class="a" d="M75.11,154.7c-.21-1.11.69-1.21,1.36-1.41,2.84-.85,5.7-1.65,8.55-2.46,2.53-.71,5.08-1.37,7.6-2.13.78-.23,1.29-.27,1.54.64.3,1.14,0,1.75-1,2l-16.55,4.73C75.55,156.43,75.16,156,75.11,154.7Z"/><path class="a" d="M77.61,131.15c.45.2.83.35,1.18.55l13.83,7.63c.29.16.57.35.87.52.81.45.92,1,.5,1.86s-1,1-1.79.53q-3.81-2.13-7.63-4.23c-2.37-1.29-4.76-2.54-7.13-3.84-1.25-.68-1.4-1.64-.43-2.58A5.13,5.13,0,0,1,77.61,131.15Z"/><path class="d" d="M123.56,24.69H8.58c-2.72,0-2.44.3-2.42-2.35s-.3-5.12.76-7.61a6.72,6.72,0,0,1,3.86-3.9A13.07,13.07,0,0,1,15.52,10q108.36,0,216.71,0a9,9,0,0,1,6.49,2.29A8.19,8.19,0,0,1,241,17.75c.19,1.89,0,3.81.06,5.71,0,1-.41,1.31-1.34,1.24-.54-.05-1.08,0-1.63,0ZM37.85,19.8c1.79,0,2.52-.64,2.56-2.34s-.63-2.52-2.34-2.56-2.52.63-2.56,2.34S36.15,19.76,37.85,19.8Zm-9.77,0c1.78,0,2.51-.64,2.54-2.35S30,14.93,28.27,14.9s-2.51.64-2.55,2.35S26.36,19.76,28.08,19.8Zm-7.25-2.29c.06-1.79-.61-2.56-2.28-2.61s-2.56.61-2.61,2.28.61,2.56,2.28,2.62S20.78,19.18,20.83,17.51Z"/><path class="d" d="M121.12,181.81A5.73,5.73,0,0,1,120,180.6c-1.28-2.77-2.48-5.59-3.75-8.37-1.54-3.39-3.15-6.75-4.7-10.13-1.08-2.37-2.12-4.75-3.16-7.13a3.6,3.6,0,0,1-.15-.74,2.8,2.8,0,0,1,.88.1l12.85,6,13,6.1c1.06.5,1.13.89.25,1.81-1.46,1.52-2.95,3-4.46,4.46-.7.68-.7,1.05.14,1.73,1.57,1.27,3,2.77,4.43,4.17.72.68.51,1.24-.09,1.9-1.45,1.58-1.68,1.61-3.2.11l-2.6-2.59c-2.19-2.19-2.19-2.19-4.46.07l-3,3C121.76,181.33,121.49,181.51,121.12,181.81Z"/><path class="e" d="M53.87,105.44H30.23c-2,0-2.05,0-2.05-1.92V68.66c0-.27,0-.54,0-.81-.07-.85.26-1.3,1.16-1.22.2,0,.41,0,.61,0,3.86,0,3.42.4,3.43-3.53,0-.21,0-.41,0-.62-.05-.78.34-1.11,1.1-1.07.13,0,.27,0,.4,0,3.45-.13,3.45-.13,3.52,3.33,0,1.79.1,1.88,1.81,1.89q13.65,0,27.31,0c1.72,0,1.78-.1,1.82-1.89a1.34,1.34,0,0,1,0-.2c.09-1,.19-2,.29-3,1.34,0,2.69-.14,4-.1.24,0,.58.49.66.8a6.11,6.11,0,0,1,0,1.42c0,3.25-.11,2.93,3,2.93.34,0,.68,0,1,0,.9-.08,1.22.36,1.16,1.21,0,.48,0,1,0,1.43v33.84c0,2.55.29,2.33-2.25,2.33Q65.6,105.46,53.87,105.44Zm-.1-2.44H75.38c1.7,0,1.73,0,1.73-1.62q0-15.5,0-31c0-1.58,0-1.59-1.53-1.62-.27,0-.54,0-.81,0H33c-.41,0-.82,0-1.23,0-.74,0-1.18.2-1.12,1,0,.33,0,.68,0,1V101c0,2.26-.11,2,2.15,2Z"/><path class="f" d="M131,61.41a22,22,0,1,1-22,22A22.11,22.11,0,0,1,131,61.41Zm0,2.4c-3.08.64-6.2,1-9,2.48a20.82,20.82,0,0,0-7,6.32,16.13,16.13,0,0,0-3.11,8.56c0,.93-.52,1.92-.33,2.78.6,2.65.83,5.38,2.06,7.91a21.09,21.09,0,0,0,6.56,7.59,18.38,18.38,0,0,0,8.54,3.2,12.73,12.73,0,0,0,5-.06,8.86,8.86,0,0,1,1.56-.38,13,13,0,0,0,7.07-3.06,19.89,19.89,0,0,0,5.65-6.26c1.47-2.75,3.19-8.34,2.29-12a7.25,7.25,0,0,1-.38-1.56,12.78,12.78,0,0,0-3-7.1,20.77,20.77,0,0,0-6.58-5.9C137.26,64.81,134.07,64.46,130.94,63.81Z"/><path class="a" d="M37.85,19.8c-1.7,0-2.37-.77-2.34-2.56s.77-2.38,2.56-2.34,2.38.77,2.34,2.56S39.64,19.83,37.85,19.8Z"/><path class="a" d="M28.08,19.8c-1.72,0-2.39-.76-2.36-2.55s.76-2.38,2.55-2.35,2.39.76,2.35,2.55S29.86,19.83,28.08,19.8Z"/><path class="a" d="M20.83,17.51c0,1.67-.82,2.34-2.61,2.29s-2.34-.82-2.28-2.62.81-2.34,2.61-2.28S20.89,15.72,20.83,17.51Z"/><path class="d" d="M53.77,103h-21c-2.26,0-2.15.22-2.15-2V70.78c0-.33,0-.68,0-1-.06-.83.38-1.07,1.12-1,.41,0,.82,0,1.23,0h41.8c.27,0,.54,0,.81,0,1.5,0,1.53,0,1.53,1.62q0,15.5,0,31c0,1.6,0,1.62-1.73,1.62Zm13.51-2.45c1,.16,1.35-.31,1.27-1.27,0-.54,0-1.09,0-1.63-.09-1,.32-1.39,1.29-1.29.33,0,.68,0,1,0,1.07,0,1.38-.52,1.41-1.52s-.53-1.24-1.4-1.18c-.4,0-.81,0-1.22,0-.77,0-1.12-.26-1.1-1.06,0-1.43,0-2.86,0-4.28,0-1,.38-1.35,1.32-1.26.34,0,.68,0,1,0,.88.08,1.4-.12,1.39-1.19s-.41-1.34-1.34-1.25c-.41,0-.82,0-1.22,0-.91.08-1.19-.35-1.17-1.2,0-1.43,0-2.86,0-4.29,0-.75.25-1.15,1-1.1.41,0,.82,0,1.22,0,.81,0,1.49,0,1.45-1.13,0-1-.26-1.51-1.36-1.58-2.32-.15-2.32-.2-2.36-2.44a2.77,2.77,0,0,1,0-.41c.1-.91-.21-1.36-1.23-1.36s-1.29.48-1.21,1.38c0,.4,0,.81,0,1.22,0,1.59,0,1.61-1.55,1.62-2.18,0-4.35,0-6.53,0-2.8,0-2.84,0-2.92-2.89,0-.93-.26-1.33-1.27-1.34s-1.26.52-1.19,1.4c0,.47,0,1,0,1.42.11,1-.29,1.46-1.38,1.43-2.17-.06-4.35,0-6.52,0-3,0-3,0-3.14-2.9-.06-1.21-.27-1.36-1.46-1.31-1.39.06-.93,1.09-.95,1.8-.07,2.26-.05,2.26-2.22,2.41-1.28.09-1.48.37-1.51,1.61s.73,1.09,1.5,1.08c.34,0,.68,0,1,0,.85-.07,1.25.26,1.2,1.16s0,1.63,0,2.44a6.31,6.31,0,0,1-.33,2.73c-.25.4-1.5.26-2.3.24-1,0-1.07.55-1.07,1.31s.18,1.14,1,1.15,2.05-.1,2.46.38.18,1.67.22,2.54a7.48,7.48,0,0,1,0,.82c-.06.86.15,1.93-.29,2.52-.32.43-1.49.31-2.28.3s-1.16.42-1.13,1.25c0,1.21.22,1.38,1.66,1.45,2,.1,2,.1,2,2.16a5.61,5.61,0,0,1,0,.82c-.07.82.2,1.24,1.13,1.25s1.42-.26,1.31-1.27a10.1,10.1,0,0,1,0-1.23c0-1.69,0-1.71,1.65-1.72,2,0,4.08,0,6.12,0,1,0,2.25-.2,2.92.31.5.37.32,1.74.32,2.67s.25,1.23,1.15,1.24,1.4-.3,1.3-1.29c-.05-.54,0-1.09,0-1.63-.08-1,.28-1.34,1.27-1.32,2.18.05,4.35,0,6.53,0,1,0,2.25-.19,2.91.32.5.38.31,1.75.31,2.68S66.36,100.67,67.28,100.55Z"/><path class="d" d="M200.53,61.39c5.43.69,9.78,2.69,12.87,7.27,1.92,2.86,2.5,6,3.14,9.22a9.35,9.35,0,0,1-.33,2.78,30.76,30.76,0,0,1-3.67,11.13c-1.35,2.47-2.56,5-4.07,7.38-2,3.12-4.19,6.09-6.35,9.1-1.08,1.51-1.72,1.55-2.75.09-2.7-3.85-5.58-7.61-7.93-11.68a61.4,61.4,0,0,1-4.76-9.9c-.94-2.64-1.1-5.35-1.8-8a7.88,7.88,0,0,1,.32-2.57A16.64,16.64,0,0,1,190.25,66a14.52,14.52,0,0,1,8.12-4.15C199.16,61.71,199.94,61.51,200.53,61.39Zm.37,9.81a7.11,7.11,0,0,0-7.38,7.23,7.39,7.39,0,1,0,7.38-7.23Z"/><path class="d" d="M130.94,63.81c3.13.65,6.32,1,9.23,2.55a20.77,20.77,0,0,1,6.58,5.9,12.78,12.78,0,0,1,3,7.1,7.25,7.25,0,0,0,.38,1.56c.9,3.63-.82,9.22-2.29,12a19.89,19.89,0,0,1-5.65,6.26,13,13,0,0,1-7.07,3.06,8.86,8.86,0,0,0-1.56.38,12.73,12.73,0,0,1-5,.06,18.38,18.38,0,0,1-8.54-3.2,21.09,21.09,0,0,1-6.56-7.59c-1.23-2.53-1.46-5.26-2.06-7.91-.19-.86.28-1.85.33-2.78a16.13,16.13,0,0,1,3.11-8.56,20.82,20.82,0,0,1,7-6.32C124.74,64.78,127.86,64.45,130.94,63.81Zm-2.44,14.9c0,2,0,4.07,0,6.1a1.71,1.71,0,0,0,.76,1.75c3.66,2.16,7.3,4.34,11,6.52.72.43,1.37.6,1.79-.4a7.76,7.76,0,0,1,.57-.84c.72-1.19.74-1.24-.51-2-2.71-1.65-5.4-3.34-8.19-4.84a2.94,2.94,0,0,1-1.71-3.07c.1-2.92,0-5.83,0-8.75,0-2,0-2-2-2-1.69,0-1.7,0-1.72,1.64C128.49,74.78,128.5,76.75,128.5,78.71Z"/><path class="a" d="M67.28,100.55c-.92.12-1.19-.32-1.18-1.18s.19-2.3-.31-2.68c-.66-.51-1.91-.3-2.91-.32-2.18,0-4.35,0-6.53,0-1,0-1.35.37-1.27,1.32,0,.54,0,1.09,0,1.63.1,1-.34,1.3-1.3,1.29s-1.15-.39-1.15-1.24.18-2.3-.32-2.67c-.67-.51-1.92-.29-2.92-.31-2,0-4.08,0-6.12,0-1.62,0-1.63,0-1.65,1.72a10.1,10.1,0,0,0,0,1.23c.11,1-.38,1.28-1.31,1.27s-1.2-.43-1.13-1.25a5.61,5.61,0,0,0,0-.82c0-2.06,0-2.06-2-2.16-1.44-.07-1.61-.24-1.66-1.45,0-.83.2-1.27,1.13-1.25s2,.13,2.28-.3c.44-.59.23-1.66.29-2.52a7.48,7.48,0,0,0,0-.82c0-.87.23-2-.22-2.54s-1.6-.36-2.46-.38-1-.43-1-1.15.08-1.33,1.07-1.31c.8,0,2,.16,2.3-.24a6.31,6.31,0,0,0,.33-2.73c0-.81,0-1.63,0-2.44S38.85,78,38,78.07c-.34,0-.68,0-1,0-.77,0-1.52.1-1.5-1.08s.23-1.52,1.51-1.61c2.17-.15,2.15-.15,2.22-2.41,0-.71-.44-1.74.95-1.8,1.19,0,1.4.1,1.46,1.31.15,2.9.15,2.9,3.14,2.9,2.17,0,4.35,0,6.52,0,1.09,0,1.49-.39,1.38-1.43,0-.47,0-1,0-1.42-.07-.88.12-1.41,1.19-1.4s1.24.41,1.27,1.34c.08,2.89.12,2.89,2.92,2.89,2.18,0,4.35,0,6.53,0,1.52,0,1.52,0,1.55-1.62,0-.41,0-.82,0-1.22-.08-.9.17-1.38,1.21-1.38s1.33.45,1.23,1.36a2.77,2.77,0,0,0,0,.41c0,2.24,0,2.29,2.36,2.44,1.1.07,1.32.62,1.36,1.58,0,1.14-.64,1.17-1.45,1.13-.4,0-.81,0-1.22,0-.8,0-1.07.35-1,1.1,0,1.43,0,2.86,0,4.29,0,.85.26,1.28,1.17,1.2.4,0,.81,0,1.22,0,.93-.09,1.34.24,1.34,1.25s-.51,1.27-1.39,1.19c-.34,0-.68,0-1,0-.94-.09-1.36.25-1.32,1.26.06,1.42,0,2.85,0,4.28,0,.8.33,1.1,1.1,1.06.41,0,.82,0,1.22,0,.87-.06,1.43.1,1.4,1.18s-.34,1.57-1.41,1.52c-.34,0-.69,0-1,0-1-.1-1.38.32-1.29,1.29,0,.54,0,1.09,0,1.63C68.63,100.24,68.27,100.71,67.28,100.55ZM47.07,84.66c1.42,0,2.85,0,4.27,0,.93,0,1.38-.23,1.33-1.25-.06-1.35-.06-2.71,0-4.07,0-1-.31-1.31-1.29-1.3-2.84,0-5.69,0-8.54,0-.84,0-1.26.23-1.23,1.15,0,1.42,0,2.85,0,4.27,0,.87.3,1.22,1.18,1.19C44.22,84.62,45.64,84.66,47.07,84.66Zm13.52,0c1.43,0,2.86,0,4.28,0,1,0,1.3-.38,1.26-1.32-.06-1.35,0-2.71,0-4.07,0-.83-.22-1.24-1.14-1.22q-4.38,0-8.75,0c-.91,0-1.18.37-1.16,1.21,0,1.36.08,2.72,0,4.07-.07,1.15.48,1.37,1.46,1.33C57.88,84.62,59.24,84.66,60.59,84.66ZM47.23,87.09c-1.49,0-3,0-4.48,0-.73,0-1.15.19-1.13,1,0,1.49,0,3,0,4.48,0,1,.47,1.11,1.27,1.1,2.85,0,5.7,0,8.54,0,1,0,1.28-.42,1.25-1.34-.05-1.35-.05-2.71,0-4.07,0-.85-.27-1.24-1.17-1.21C50.08,87.12,48.65,87.09,47.23,87.09Zm13.44,0h0c-1.49,0-3,0-4.48,0-.74,0-1.13.23-1.11,1,0,1.49,0,3,0,4.48,0,.77.29,1.09,1.07,1.08,3,0,6,0,9,0,.65,0,1-.23,1-.94,0-1.56,0-3.12,0-4.68,0-.69-.28-1-1-1C63.66,87.1,62.16,87.09,60.67,87.09Z"/><path class="a" d="M200.9,71.2a7.18,7.18,0,0,1,7.4,7.23,7.39,7.39,0,1,1-14.78,0A7.11,7.11,0,0,1,200.9,71.2Zm4.72,7.4A4.82,4.82,0,0,0,201,73.69a4.88,4.88,0,0,0-4.78,4.57,4.71,4.71,0,1,0,9.4.34Z"/><path class="a" d="M128.5,78.71c0-2,0-3.93,0-5.89,0-1.63,0-1.63,1.72-1.64,2,0,2,0,2,2,0,2.92.07,5.83,0,8.75A2.94,2.94,0,0,0,133.87,85c2.79,1.5,5.48,3.19,8.19,4.84,1.25.77,1.23.82.51,2a7.76,7.76,0,0,0-.57.84c-.42,1-1.07.83-1.79.4-3.65-2.18-7.29-4.36-11-6.52a1.71,1.71,0,0,1-.76-1.75C128.51,82.78,128.5,80.75,128.5,78.71Z"/><path class="d" d="M47.07,84.66c-1.43,0-2.85,0-4.28,0-.88,0-1.21-.32-1.18-1.19,0-1.42,0-2.85,0-4.27,0-.92.39-1.16,1.23-1.15,2.85,0,5.7,0,8.54,0,1,0,1.33.34,1.29,1.3-.06,1.36-.06,2.72,0,4.07,0,1-.4,1.28-1.33,1.25C49.92,84.62,48.49,84.66,47.07,84.66Z"/><path class="d" d="M60.59,84.66c-1.35,0-2.71,0-4.07,0-1,0-1.53-.18-1.46-1.33.09-1.35,0-2.71,0-4.07,0-.84.25-1.23,1.16-1.21q4.37,0,8.75,0c.92,0,1.17.39,1.14,1.22,0,1.36-.05,2.72,0,4.07,0,.94-.26,1.37-1.26,1.32C63.45,84.61,62,84.66,60.59,84.66Z"/><path class="d" d="M47.23,87.09c1.42,0,2.85,0,4.27,0,.9,0,1.19.36,1.17,1.21-.05,1.36-.05,2.72,0,4.07,0,.92-.23,1.36-1.25,1.34-2.84,0-5.69,0-8.54,0-.8,0-1.3-.15-1.27-1.1,0-1.49,0-3,0-4.48,0-.83.4-1,1.13-1C44.24,87.1,45.74,87.09,47.23,87.09Z"/><path class="d" d="M60.67,87.09c1.49,0,3,0,4.48,0,.69,0,1,.29,1,1,0,1.56,0,3.12,0,4.68,0,.71-.35.94-1,.94-3,0-6,0-9,0-.78,0-1.09-.31-1.07-1.08,0-1.49,0-3,0-4.48,0-.81.37-1.05,1.11-1,1.5,0,3,0,4.48,0Z"/><path class="g" d="M205.62,78.6a4.71,4.71,0,1,1-9.4-.34A4.88,4.88,0,0,1,201,73.69,4.82,4.82,0,0,1,205.62,78.6Z"/></svg>