<svg xmlns="http://www.w3.org/2000/svg" viewBox="0 0 296.29 193.86"><defs><style>.a{fill:#ff2c14;}.b{fill:#ffd9d7;}.c{fill:#f3f8fc;}.d{fill:#f0f7fc;}.e{fill:#f3fafe;}.f{fill:#f5fafd;}.g{fill:#f3f9fc;}.h{fill:#f5f9fc;}</style></defs><title>step-3-relax</title><path class="a" d="M295.88,94.72c0,6.65.1,13.31,0,20-.29,15.62-12.44,31.06-27.52,34.94a72.75,72.75,0,0,1-9.19,1.51c-1.25.15-1.7.46-1.57,1.79.88,9.56,1.66,19.13,2.54,28.69.31,3.39-.36,4.8-2.7,5.07-4.35.5-5.92-.4-6.28-4.13q-1.37-14.46-2.42-29c-.14-2-.76-2.43-2.63-2.42q-31.54.09-63.09,0c-1.9,0-2.47.51-2.61,2.44q-1,14.37-2.4,28.71c-.38,4-3.64,5.88-7.22,4.07-1-.51-1.85-2.54-1.76-3.8.66-9.66,1.5-19.31,2.46-29,.21-2.07-.37-2.45-2.28-2.47-18.9-.25-33.61-11.8-38-29.95a38.62,38.62,0,0,1-.87-8.79c-.1-12.41-.07-24.81,0-37.21,0-7.89,4.85-12.74,12.71-12.78,6.16,0,12.33-.07,18.48,0,1.79,0,2.46-.61,2.73-2.29,1.71-10.77,3.57-21.52,5.24-32.3a14.64,14.64,0,0,1,14.33-12.75q29.33-.09,58.64,0A13.47,13.47,0,0,1,256,26.88c1.57,10.87,3,21.78,4.37,32.68.26,2.06.81,3,3.14,2.93,6.41-.17,12.83.18,19.22-.12A12.38,12.38,0,0,1,296,75.5c-.34,6.39-.07,12.81-.07,19.22ZM148.12,67.35c2.55,6.45,5.17,12.88,7.6,19.38.62,1.66,1,1.46,2,.45,4.65-4.37,10-7.13,16.56-6.94,2.76.08,2.85-1.25,2.16-3.17a20,20,0,0,0-9.14-10.82c-.58-.28-1.15-.78-1.72-.79-5.58-.06-11.16,0-16.74,0C147.09,65.44,147.56,66.39,148.12,67.35Zm129.91,0c.68-1.11.63-1.86-.92-1.86-5.53,0-11.06-.07-16.59,0-.57,0-1.13.51-1.7.79a20,20,0,0,0-9.21,11c-.65,1.89-.34,3,2.18,3,6.6-.21,12,2.62,16.7,7.08,1.1,1.05,1.28,1.26,1.9-.4C272.82,80.35,275.46,73.87,278,67.35Zm-133.77,0c-.61-.49-1.18-1.35-1.83-1.41-5.19-.5-9.17,3.15-9.19,8.51-.06,13.06-.15,26.11,0,39.17.25,18.72,15.8,34.43,34.49,34.54q45.33.3,90.66,0c17.88-.11,33.5-14.77,34.31-32.62.64-13.93.26-27.91.12-41.87a8.09,8.09,0,0,0-9.37-7.75c-.59.09-1.06.93-1.59,1.42-2.7,6.13-5.64,12.17-8,18.43-.91,2.47-.82,5.47-.59,8.17.33,3.78,1.73,7.5,1.8,11.26.18,11.67-10.64,22.32-22.36,22.34-26.46,0-52.92-.06-79.37,0-11.9.05-25.57-12.15-22-28.74.56-2.68,1.95-5.4,1.72-8C152.33,82.25,148.53,74.67,144.26,67.34ZM255,64.67c2-.51,2.93-1.45,2.58-3.85-1.61-11-2.93-21.93-4.47-32.89-.88-6.26-5.14-9.84-11.46-9.84q-28.56,0-57.12,0c-6.53,0-11,3.8-12.1,10.27-.39,2.26-.74,4.53-1.12,6.79q-2.07,12.49-4.13,25c-.25,1.49-.24,2.84,1.72,3.13.5.4,1,.81,1.51,1.19,4.56,3.31,8.25,7.35,9.37,13,.43,2.22,1.22,2.75,3.32,2.74,19-.07,38,0,57.06,0,1.79,0,3.81.3,5.28-.43.89-.44.92-2.6,1.34-4C248.19,71.06,251.68,67.92,255,64.67Zm-41.89,59.88c12.39,0,24.8.23,37.18-.14a26.36,26.36,0,0,0,11.41-3c8.91-4.86,12.49-15.07,9-25-.6-1.67-1.21-2.29-3.08-.86A25.87,25.87,0,0,1,251.33,101q-38.18-.11-76.35,0a26.31,26.31,0,0,1-16.67-5.59c-1.53-1.18-2.15-.67-2.66.68-3.13,8.31-1.41,16.94,5.6,23.2,4.39,3.92,9.68,5.3,15.42,5.3Q194.9,124.57,213.12,124.55ZM213,97.92c12.81,0,25.63.08,38.44,0a24,24,0,0,0,14.64-5c1.56-1.19,1.52-2,.24-3.3a20.16,20.16,0,0,0-14.52-6.34q-38.82-.14-77.63,0c-5.56,0-10.31,2.38-14.28,6.31-1.34,1.34-1.19,2.16.29,3.29a23.65,23.65,0,0,0,14.62,5.06C187.5,98,200.23,97.92,213,97.92Z"/><path class="a" d="M59.44,74.27h51.5c5.42,0,7.31,2,7.53,7.37.35,8.77-1.45,10.62-10.41,10.47-14.46-.25-28.91,0-43.37-.11-1.88,0-2.51.41-2.51,2.43q.1,40.53,0,81.06c0,1.84.48,2.38,2.34,2.35,7.3-.1,14.61-.05,21.92,0,3.29,0,5.35,1.75,5.33,4.46s-2.07,4.42-5.38,4.42H32.2c-3.37,0-5.41-1.64-5.46-4.33s2-4.55,5.49-4.55c7.23,0,14.46-.06,21.68,0,1.74,0,2.43-.3,2.43-2.26q-.11-40.67,0-81.31c0-2-.69-2.27-2.43-2.26-15.52.06-31,0-46.57,0-5.17,0-7-2.12-7.29-7.33-.45-9.35,2-10.6,10.36-10.5C26.75,74.41,43.1,74.27,59.44,74.27Zm-.18,14.8h50.53c5.3,0,5.67-.38,5.67-5.79v-.74c0-4.72-.57-5.3-5.19-5.3H10c-6.93,0-6.93,0-6.91,7,0,4.07.75,4.8,4.94,4.8Z"/><path class="a" d="M34.31,38.77c4.6,0,9.19.08,13.78,0,1.83,0,2.63.45,2.32,2.32s.55,2.33,2.23,2.18a28.39,28.39,0,0,1,3.69,0,8.89,8.89,0,0,1,8.78,7.46c.8,5.69-1.67,10.3-6.47,11.45-2.11.5-4.42.11-6.59.41a3.69,3.69,0,0,0-2.46,1.59c-2.48,4.74-6.22,7.26-11.62,7.22-2.87,0-5.74.05-8.61,0A11.63,11.63,0,0,1,17.87,59.86c-.12-6.39,0-12.79-.07-19.19,0-1.55.53-2,2-1.93C24.63,38.81,29.47,38.77,34.31,38.77Zm13.11,13c0-2.62-.07-5.25,0-7.87,0-1.52-.29-2.18-2-2.16-7.54.08-15.08.06-22.62,0-1.41,0-2.06.28-2,1.88.09,5.33,0,10.66.07,16a8.85,8.85,0,0,0,8.83,8.74q4.43.1,8.85,0a8.9,8.9,0,0,0,8.87-9C47.46,56.83,47.41,54.29,47.42,51.75Zm6.73,7.73h.74c4.79,0,7.29-2.26,7.31-6.57s-2.45-6.7-7.41-6.72a8.46,8.46,0,0,0-2.67.07c-.68.23-1.6,1-1.64,1.6-.18,2.61-.11,5.23-.08,7.85C50.45,60.06,49.8,59.41,54.15,59.48Z"/><path class="b" d="M96,65.41c-4.6,0-9.2,0-13.8,0-2.9,0-5.19-2-5.2-4.41s2.28-4.44,5.16-4.45c9.37,0,18.73,0,28.09,0,1.71,0,2.26.49,2.27,2.23.06,6.68.12,6.68-6.41,6.68Z"/><path class="a" d="M94.78,71.35c-4.84,0-9.69,0-14.53,0C74,71.26,69.57,66.82,69.61,60.84s4.52-10.19,10.66-10.22c10-.06,20,0,30.05,0,1,0,2.18-.39,2.24,1.4s-1.2,1.58-2.31,1.59q-14.53,0-29.07,0c-5,0-8.48,3-8.56,7.25s3.47,7.47,8.58,7.48h29.07c1.12,0,2.64-.25,2.16,1.58a2.73,2.73,0,0,1-2.13,1.36C105.13,71.4,100,71.35,94.78,71.35Z"/><path class="a" d="M35.82,26.51A70.64,70.64,0,0,1,38.61,20c2.33-4.27,1.9-6.44-2-9.43-.53-.41-.55-1.47-.81-2.23,1-.15,2.07-.66,2.89-.37,2.84,1,5.39,6,4.6,9a25.73,25.73,0,0,1-2.26,5.4c-1.39,2.61-1.8,5,.27,7.53.44.53.12,1.67.15,2.53-.92-.18-2.28,0-2.69-.59A43.72,43.72,0,0,1,35.82,26.51Z"/><path class="a" d="M26.91,23.4c1.05-2.38,1.89-4.58,3-6.65,2-3.84,1.68-5.15-1.92-7.43C27.4,9,27.23,8,26.87,7.25c.92-.26,2-.94,2.76-.71,4.2,1.21,6,6.26,3.94,10.54-.57,1.18-1.31,2.27-1.89,3.44a5.47,5.47,0,0,0,.46,6.22c.51.68.25,1.92.34,2.9-1-.3-2.37-.3-2.86-1A36.08,36.08,0,0,1,26.91,23.4Z"/><path class="b" d="M255,64.67c-3.33,3.25-6.82,6.39-8.22,11.08-.42,1.39-.45,3.55-1.34,4-1.47.73-3.49.42-5.28.43-19,0-38,0-57.06,0-2.1,0-2.89-.52-3.32-2.74-1.12-5.67-4.81-9.71-9.37-13-.52-.38-1-.79-1.51-1.19a7.73,7.73,0,0,0,.76-1.73c2-11.48,3.93-23,5.91-34.45a7.06,7.06,0,0,1,7-6q30.43-.09,60.88,0c4.07,0,6.77,3,7.13,6.94.4,4.38,1.11,8.73,1.64,13.1Q253.64,52.9,255,64.67Zm-53.35-25,.09-1.37c-1.07-.83-2-2.08-3.24-2.39-1.72-.44-3,.68-3.15,2.53s.84,3.36,2.78,3.17C199.37,41.51,200.49,40.38,201.66,39.7Zm25.74-1.58v1.36c1.12.76,2.17,1.93,3.39,2.16,1.77.33,2.92-.9,3-2.74s-1.08-3.28-3-3C229.56,36.14,228.51,37.36,227.4,38.12Z"/><path class="b" d="M144.26,67.34c4.27,7.33,8.07,14.91,8.8,23.49.23,2.6-1.16,5.32-1.72,8-3.52,16.59,10.15,28.79,22,28.74,26.45-.09,52.91,0,79.37,0,11.72,0,22.54-10.67,22.36-22.34-.07-3.76-1.47-7.48-1.8-11.26-.23-2.7-.32-5.7.59-8.17,2.34-6.26,5.28-12.3,8-18.43,6.12.22,8.08,2.22,8.08,8.26,0,12.15.14,24.31-.05,36.46a33,33,0,0,1-5.86,19.09,32.35,32.35,0,0,1-27.19,14q-43.85.3-87.7,0a32.28,32.28,0,0,1-19.83-6.67c-8.83-6.75-12.89-15.88-13.11-26.72-.24-12.07-.06-24.14,0-36.21C136.18,69.56,138.14,67.56,144.26,67.34Z"/><path class="b" d="M213.12,124.55q-18.23,0-36.45,0c-5.74,0-11-1.38-15.42-5.3-7-6.26-8.73-14.89-5.6-23.2.51-1.35,1.13-1.86,2.66-.68A26.31,26.31,0,0,0,175,101q38.18-.12,76.35,0a25.87,25.87,0,0,0,16.25-5.39c1.87-1.43,2.48-.81,3.08.86,3.54,9.88,0,20.09-9,25a26.36,26.36,0,0,1-11.41,3C237.92,124.78,225.51,124.55,213.12,124.55Z"/><path class="b" d="M213,97.92c-12.74,0-25.47.07-38.2,0a23.65,23.65,0,0,1-14.62-5.06c-1.48-1.13-1.63-2-.29-3.29,4-3.93,8.72-6.29,14.28-6.31q38.81-.15,77.63,0a20.16,20.16,0,0,1,14.52,6.34c1.28,1.28,1.32,2.11-.24,3.3a24,24,0,0,1-14.64,5C238.6,98,225.78,97.92,213,97.92Z"/><path class="c" d="M144.26,67.34c-6.12.22-8.08,2.22-8.08,8.26,0,12.07-.19,24.14,0,36.21.22,10.84,4.28,20,13.11,26.72a32.28,32.28,0,0,0,19.83,6.67q43.85.24,87.7,0a32.35,32.35,0,0,0,27.19-14,33,33,0,0,0,5.86-19.09c.19-12.15.05-24.31.05-36.46,0-6-2-8-8.08-8.26.53-.49,1-1.33,1.59-1.42a8.09,8.09,0,0,1,9.37,7.75c.14,14,.52,27.94-.12,41.87-.81,17.85-16.43,32.51-34.31,32.62q-45.33.27-90.66,0c-18.69-.11-34.24-15.82-34.49-34.54-.18-13.06-.09-26.11,0-39.17,0-5.36,4-9,9.19-8.51C143.08,66,143.65,66.85,144.26,67.34Z"/><path class="d" d="M255,64.67q-1.38-11.78-2.78-23.56c-.53-4.37-1.24-8.72-1.64-13.1-.36-4-3.06-6.93-7.13-6.94q-30.44-.08-60.88,0a7.06,7.06,0,0,0-7,6c-2,11.48-3.92,23-5.91,34.45a7.73,7.73,0,0,1-.76,1.73c-2-.29-2-1.64-1.72-3.13q2.07-12.49,4.13-25c.38-2.26.73-4.53,1.12-6.79,1.12-6.47,5.57-10.27,12.1-10.27q28.56,0,57.12,0c6.32,0,10.58,3.58,11.46,9.84,1.54,11,2.86,21.94,4.47,32.89C257.94,63.22,257,64.16,255,64.67Z"/><path class="b" d="M278,67.35c-2.57,6.52-5.21,13-7.64,19.57-.62,1.66-.8,1.45-1.9.4-4.65-4.46-10.1-7.29-16.7-7.08-2.52.08-2.83-1.08-2.18-3a20,20,0,0,1,9.21-11c.78.38,1.54,1.07,2.32,1.08C266.77,67.41,272.4,67.36,278,67.35Z"/><path class="b" d="M167.33,66.25a20,20,0,0,1,9.14,10.82c.69,1.92.6,3.25-2.16,3.17-6.52-.19-11.91,2.57-16.56,6.94-1.07,1-1.41,1.21-2-.45-2.43-6.5-5.05-12.93-7.6-19.38,5.63,0,11.26.06,16.88,0C165.78,67.32,166.55,66.63,167.33,66.25Z"/><path class="e" d="M167.33,66.25c-.78.38-1.55,1.07-2.33,1.08-5.62.08-11.25,0-16.88,0-.56-1-1-1.91.75-1.92,5.58,0,11.16,0,16.74,0C166.18,65.47,166.75,66,167.33,66.25Z"/><path class="e" d="M278,67.35c-5.63,0-11.26.06-16.89,0-.78,0-1.54-.7-2.32-1.08.57-.28,1.13-.78,1.7-.79,5.53,0,11.06,0,16.59,0C278.66,65.49,278.71,66.24,278,67.35Z"/><path class="f" d="M59.26,89.07H8c-4.19,0-4.93-.73-4.94-4.8,0-7,0-7,6.91-7h100.3c4.62,0,5.19.58,5.19,5.3v.74c0,5.41-.37,5.79-5.67,5.79Zm-.12-3c16.83,0,33.65,0,50.48,0,2.18,0,3-.45,2.95-2.82-.08-2.09-.17-3.2-2.84-3.19q-50.48.15-100.95,0C6.38,80.14,6,81,6,83.1c0,2.3.5,3.08,3,3.07C25.66,86.06,42.4,86.11,59.14,86.11Z"/><path class="g" d="M47.42,51.75c0,2.54,0,5.08,0,7.62a8.9,8.9,0,0,1-8.87,9q-4.43.1-8.85,0a8.85,8.85,0,0,1-8.83-8.74c-.1-5.33,0-10.66-.07-16,0-1.6.63-1.89,2-1.88,7.54.05,15.08.07,22.62,0,1.72,0,2.06.64,2,2.16C47.35,46.5,47.42,49.13,47.42,51.75Zm-13.06-7c-2.87,0-5.74.06-8.6,0-1.48,0-2,.44-2,2,.07,4.18-.1,8.37.07,12.54.1,2.34.9,4.9,3.51,5.26A58.45,58.45,0,0,0,39.85,65c2.77-.22,4.44-2.75,4.56-5.6.19-4.34.12-8.69,0-13a2.4,2.4,0,0,0-1.66-1.62C40,44.61,37.15,44.71,34.36,44.71Z"/><path class="h" d="M54.15,59.48c-4.35-.07-3.7.58-3.75-3.77,0-2.62-.1-5.24.08-7.85,0-.59,1-1.37,1.64-1.6a8.46,8.46,0,0,1,2.67-.07q7.44,0,7.41,6.72c0,4.31-2.52,6.56-7.31,6.57Z"/><path class="a" d="M201.66,39.7c-1.17.68-2.29,1.81-3.52,1.94-1.94.19-2.94-1.23-2.78-3.17s1.43-3,3.15-2.53c1.21.31,2.17,1.56,3.24,2.39Z"/><path class="a" d="M227.4,38.12c1.11-.76,2.16-2,3.37-2.18,1.9-.32,3,1,3,3s-1.19,3.07-3,2.74c-1.22-.23-2.27-1.4-3.39-2.16Z"/><path class="b" d="M59.14,86.11c-16.74,0-33.48,0-50.23.06-2.46,0-3-.77-3-3.07,0-2.13.43-3,2.83-2.95q50.47.12,101,0c2.67,0,2.76,1.1,2.84,3.19.1,2.37-.77,2.83-2.95,2.82C92.79,86.07,76,86.11,59.14,86.11Z"/><path class="b" d="M34.36,44.71c2.79,0,5.59-.1,8.36.08a2.4,2.4,0,0,1,1.66,1.62c.15,4.34.22,8.69,0,13-.12,2.85-1.79,5.38-4.56,5.6a58.45,58.45,0,0,1-12.52-.59c-2.61-.36-3.41-2.92-3.51-5.26-.17-4.17,0-8.36-.07-12.54,0-1.52.53-2,2-2C28.62,44.77,31.49,44.71,34.36,44.71Z"/></svg>