<svg xmlns="http://www.w3.org/2000/svg" viewBox="0 0 188.58 188.98"><defs><style>.a{fill:#ff2c14;}.b{fill:#d9ebf6;}.c{fill:#f7fafd;}.d{fill:#ffd9d7;}.e{fill:#f2f8fb;}.f{fill:#f5f9fc;}.g{fill:#f9fcfd;}.h{fill:#f8fbfd;}.i{fill:#fdfefe;}</style></defs><title>step-1-services</title><path class="a" d="M125.78,25.37c-3.44-4.62-4.22-9.6-1.78-14.87a23,23,0,0,1,2.93-4.14c.42-.54.81-.55.95.31.38,2.29.83,4.57,1.24,6.86.2,1.12.34,2.25.61,3.35a1.75,1.75,0,0,0,.79,1q3.09,1.47,6.24,2.76a1.44,1.44,0,0,0,1.23-.25c1.68-1.53,3.33-3.1,4.92-4.74a1.86,1.86,0,0,0,.33-1.4c-.36-2.46-.8-4.9-1.22-7.35-.13-.76-.27-1.52-.37-2.29a8.38,8.38,0,0,1,0-1.12,6.58,6.58,0,0,1,1.14.34,13.93,13.93,0,0,1,2.71,23.41c-1.47,1.21-1.86,2.18-1.49,3.94.82,3.95,1.43,7.94,2.13,11.91.86,4.88,1.71,9.77,2.58,14.66.78,4.32,1.58,8.64,2.37,13a3.85,3.85,0,0,0,.2.57,2.5,2.5,0,0,0,.39-.53q2.3-6.25,4.57-12.52,2.68-7.35,5.34-14.7a5.16,5.16,0,0,0,0-4.08c-1.49-3.22-6.18-3.22-7.74-.7-.63,1-1.2,1.16-2.22.65s-1.95-.69-2.91-1.07c-1.51-.59-2-1.48-1.44-3,1-2.84,2-5.64,3.05-8.46.54-1.5,1.1-3,1.64-4.5.6-1.7,1.48-2.16,3.22-1.61,1.13.36,2.24.81,3.37,1.16.8.25,1,.71.9,1.52a4.47,4.47,0,0,0,8.22,3c.37-.6.64-1,1.44-.65,3.85,1.49,7.81,2.74,11.57,4.44,5.08,2.31,7.56,8.72,5.68,14-1.32,3.69-2.68,7.37-4,11.05a2.93,2.93,0,0,1-5,.88,1.84,1.84,0,0,1-.07-1.45,10.21,10.21,0,0,0-1.19-8.22A14.57,14.57,0,0,0,173.2,43c-.87-.83-1.07-.7-1.46.38q-1.73,4.74-3.43,9.47Q164,64.6,159.77,76.32q-3.28,9-6.57,18.06A4.8,4.8,0,0,1,149,97.63a4.46,4.46,0,0,1-4.12-2,4.61,4.61,0,0,1-.51-4.58c1.33-3.8,2.73-7.57,4.11-11.36.15-.44.32-.87.47-1.31.23-.65,0-.71-.6-.54-3.07.91-5.38-.38-6.27-3.47-.13-.45-.23-.9-.37-1.35-.08-.27-.21-.53-.32-.8,0,.31-.09.61-.09.92q0,5.06,0,10.1,0,37.39,0,74.78a6.29,6.29,0,0,1-1.12,4.24,5.35,5.35,0,0,1-4.25,2.2H53.4c-.62,0-1.3-.15-1.42.75s-.37,1.61.67,2.13c1.66.84,3.25,1.82,4.9,2.69a1,1,0,0,1,.54,1.51c-.58,1.38-1.15,2.77-1.63,4.19-.27.8-.7.9-1.41.7-1.83-.54-3.68-1-5.5-1.57a1.85,1.85,0,0,0-2,.53,3.85,3.85,0,0,0-1,5,30.24,30.24,0,0,1,1.12,4,1.17,1.17,0,0,1-.85,1.66c-1.18.39-2.28,1-3.43,1.46-1.56.67-1.56.67-2.39-.76s-1.8-3-2.62-4.58c-.42-.82-1-.91-1.85-1-2.34-.26-3.62.75-4.43,2.85a29.54,29.54,0,0,1-1.88,3.38.87.87,0,0,1-1.26.45c-1.35-.54-2.7-1.06-4.07-1.53-1-.34-1.21-1-.94-1.91.47-1.64.81-3.31,1.32-4.93a1.33,1.33,0,0,0-.61-1.7,4.82,4.82,0,0,1-1.31-1.09c-.95-1.42-2.15-1.45-3.61-.92-1.31.47-2.68.77-4,1.2-.72.23-1,0-1.3-.67-.58-1.44-1.18-2.87-1.84-4.28a1.07,1.07,0,0,1,.56-1.62c1.23-.66,2.4-1.44,3.62-2.12a1.65,1.65,0,0,0,1.07-2.07,11,11,0,0,1-.1-3.09,1.63,1.63,0,0,0-1-1.72c-1.28-.67-2.51-1.45-3.77-2.16-.64-.36-.81-.73-.45-1.48.58-1.2,1-2.49,1.47-3.74.55-1.41.68-1.45,2.2-1,1.1.3,2.23.49,3.31.84a1.21,1.21,0,0,0,1.46-.47c1-1.11,2.09-2.15,3.06-3.29a1.78,1.78,0,0,0,.38-1.31,25.62,25.62,0,0,0-.91-3.44,1.29,1.29,0,0,1,.89-1.92c1.1-.44,2.15-1,3.22-1.53,1.54-.74,1.53-.74,2.43.8.54.94,1.16,1.84,1.64,2.81a1.28,1.28,0,0,0,1.34.79c1.5,0,3,0,4.51.07a1.39,1.39,0,0,0,1.47-.86c.56-1.05,1.22-2,1.75-3.11.41-.84.94-.94,1.75-.61,1.48.6,3,1.13,4.48,1.69a14.15,14.15,0,0,1,0,2.26c-.16.91-.52,1.79-.75,2.69-.43,1.7-.29,2.09,1.11,3.1a2.85,2.85,0,0,0,.53.24A2.06,2.06,0,0,0,48,151c0-2.59,0-5.17-.07-7.75,0-.68,0-1.35,0-2q0-54.18,0-108.35c0-2.35.53-4.33,2.59-5.6a7.92,7.92,0,0,1,2.58-.9,10.45,10.45,0,0,1,2.17-.05h68.55c.63,0,1.25,0,1.87-.05l.61-.17Zm15.81,2.23a15.12,15.12,0,0,0,4.84-4A12.12,12.12,0,0,0,145.22,8a5,5,0,0,0-.87-.56,4.29,4.29,0,0,0-.1,1.12c.36,2.14.74,4.27,1.18,6.4a1.56,1.56,0,0,1-.49,1.65c-2.11,2-4.22,4-6.28,6a1.45,1.45,0,0,1-1.92.23c-2.39-1.1-4.81-2.16-7.24-3.15a2.47,2.47,0,0,1-1.7-2.15c-.29-2.1-.7-4.18-1.08-6.26a3.06,3.06,0,0,0-.3-.67,8.27,8.27,0,0,0-.63.55,1.47,1.47,0,0,0-.22.41,12.23,12.23,0,0,0,2.9,13.81,3.28,3.28,0,0,0,2.63,1c1.34-.09,2.69,0,4,0a5.88,5.88,0,0,1,6,3.8c.07.93.18,1.85.18,2.78,0,7.24,0,14.49,0,21.73a34,34,0,0,0,.51,7.25c.83,3.94,1.42,7.92,2.18,11.88a2.75,2.75,0,0,0,3.23,2.36,2.83,2.83,0,0,0,2.16-3.28c-.13-1.13-.39-2.24-.59-3.36l-3.09-17.69c-.86-4.94-1.69-9.87-2.58-14.8-.42-2.33-.93-4.65-1.4-7l-.24-1.45Zm-2.17,67.75V33.63c0-.51,0-1,0-1.55a3.81,3.81,0,0,0-3.87-3.84c-.42,0-.83,0-1.25,0H55c-.41,0-.83,0-1.24,0a3.8,3.8,0,0,0-3.87,3.84c0,.41,0,.82,0,1.24v124.2c0,.42,0,.83,0,1.25a3.81,3.81,0,0,0,3.8,3.76c.41,0,.83,0,1.24,0h79.44c.46,0,.93,0,1.39,0a3.77,3.77,0,0,0,3.63-3.59c0-.57,0-1.14,0-1.71Zm40.07-43.07a12.18,12.18,0,0,0,0,1.71,3.37,3.37,0,0,0,.48,1,3.09,3.09,0,0,0,.6-.77c1.32-3.54,2.68-7.06,3.87-10.64a9.5,9.5,0,0,0-5.33-12c-3-1.21-6.12-2.23-9.14-3.42-.87-.34-1.22.14-1.72.58a6.43,6.43,0,0,1-8.15.5,6.19,6.19,0,0,1-2.66-4.2c-.12-.68-.05-1.5-1-1.79-2.23-.72-2.44-1.48-3.23,1.36,0,.15-.13.28-.18.43-1.24,3.4-2.49,6.79-3.69,10.21-.13.36-.12,1.1.07,1.21a6.41,6.41,0,0,0,2.46.89c.45,0,1-.56,1.46-.93a6.65,6.65,0,0,1,7.55-.5,6.29,6.29,0,0,1,2.82,7.12c-.33,1.29-.79,2.56-1.24,3.82L150.27,80.53c-1.36,3.74-2.73,7.48-4.08,11.23a2.71,2.71,0,0,0,.92,3.33,2.39,2.39,0,0,0,3,0A5.59,5.59,0,0,0,151.57,93c2.3-6.15,4.53-12.33,6.77-18.49q4.57-12.62,9.16-25.22c1.08-3,2.18-5.92,3.27-8.88.22-.6.35-1.21,1.26-.66C176.75,42.62,179.52,46.62,179.49,52.28ZM43.67,177.49a5.41,5.41,0,0,1,.49-1c.89-1.15,1.86-2.23,2.69-3.41a1.47,1.47,0,0,1,1.88-.55c1.54.45,3.1.84,4.64,1.26s1.57.41,2.1-1,.52-1.43-.77-2.15c-.72-.4-1.44-.8-2.17-1.19-2.94-1.57-2.91-1.57-2.54-4.86a2.75,2.75,0,0,0-.41-1.84A6,6,0,0,1,48,158c.34-2.27-.75-3.86-2.22-5.33a7.58,7.58,0,0,0-1.25-1.16,1.64,1.64,0,0,1-.68-2.25c.35-1.08.57-2.2.92-3.28.31-.91,0-1.36-.87-1.6s-1.66-1.08-2.36.24a30.36,30.36,0,0,1-1.91,3.2,1.68,1.68,0,0,1-1.21.64c-2.16,0-4.32-.21-6.49-.25a1.46,1.46,0,0,1-1.48-.85c-.49-.91-1.08-1.77-1.57-2.68-.36-.67-.74-1.06-1.58-.7-1.62.68-1.91,1-1.62,2.15.25,1,.51,2,.85,3s0,1.35-.67,2a29.84,29.84,0,0,0-3.85,4,1.83,1.83,0,0,1-2.21.84c-1-.28-2-.53-3-.84-1.27-.4-1.44.57-1.8,1.36s-.52,1.44.45,1.94,2.06,1.2,3.11,1.74a1.84,1.84,0,0,1,1.09,2,41.38,41.38,0,0,0,.25,5.1,1.64,1.64,0,0,1-.93,1.89c-1.23.65-2.4,1.43-3.62,2.11a.93.93,0,0,0-.46,1.4c.18.37.32.76.47,1.14a1.07,1.07,0,0,0,1.57.73c1.27-.43,2.6-.68,3.87-1.12a2.26,2.26,0,0,1,2.83.78,12,12,0,0,0,2.91,2.5,1.6,1.6,0,0,1,.85,2c-.41,1.49-.79,3-1.23,4.48-.26.87-.2,1.43.81,1.79,1.77.64,1.75.71,2.41-.42.88-1.52,1.76-3,2.6-4.58a1.29,1.29,0,0,1,1.33-.81A21.39,21.39,0,0,0,37.2,179a1.85,1.85,0,0,1,2.23,1.13c.78,1.52,1.67,3,2.54,4.44.2.34.51.77.83.83a2.18,2.18,0,0,0,2.38-2.53c-.13-.55-.33-1.08-.49-1.63C44.36,180.05,44,178.86,43.67,177.49Z"/><path class="a" d="M8.2,110.12l.78.52a9.27,9.27,0,0,1,1.48,1.12,2,2,0,0,0,2.89.26,2.21,2.21,0,0,1,.85-.36c1.17-.19,1.53-.89,1.64-2,.3-3.08.36-3,3.4-3.09,1.2,0,1.88.25,1.92,1.52,0,.1.09.2.08.29-.14,2.35,1.26,3.29,3.27,3.92a2,2,0,0,0,2.12-.24c.65-.52,1.33-1,2-1.5a1.09,1.09,0,0,1,1.62.1c2.47,2.25,2.53,2.27.55,4.9-.74,1-1.1,1.8-.36,2.9a3.72,3.72,0,0,1,.41,1.16c.23.9.71,1.48,1.73,1.41h.15c3.15.38,3.82,1.25,3.25,4.36a1.21,1.21,0,0,1-.72.79,16.9,16.9,0,0,1-2.73.54A1.52,1.52,0,0,0,31,128a1.46,1.46,0,0,1-.19.59c-1.34,1.77-.51,3.18.65,4.63s1.14,1.53-.2,2.87c-1.7,1.7-1.76,1.79-3.69.31a3.43,3.43,0,0,0-4.15-.46c-1.2.6-1.89,1.05-2,2.49-.22,2.86-.32,2.85-3.15,2.84-1.71,0-1.91,0-2.06-1.67a4.13,4.13,0,0,0-3.47-4.13c-.79-.19-1.35-.35-2,.25a3.38,3.38,0,0,1-.76.54c-.78.44-1.81,1.41-2.32,1.19A8.41,8.41,0,0,1,5.12,135c-.17-.18,0-.8.16-1.1a24.71,24.71,0,0,1,1.56-2.13,1.94,1.94,0,0,0,.28-2c-.59-1.92-1.33-3.22-3.71-3.34-2.06-.1-2-.4-2-2.49s0-2.41,2.14-2.71a3.61,3.61,0,0,0,3.39-2.67c.39-1.12.49-1.89-.31-2.78a9.27,9.27,0,0,1-1.33-1.9,1.21,1.21,0,0,1,0-1.08c.74-.86,1.58-1.64,2.4-2.43A2,2,0,0,1,8.2,110.12Zm10.45,29.5a6.15,6.15,0,0,0,.75-1.22c.24-1,.36-1.93.61-2.88a1.48,1.48,0,0,1,.69-.87c1.38-.56,2.82-1,4.18-1.58a1.45,1.45,0,0,1,1.69.19c.66.5,1.31,1,2,1.46.25.15.65.05,1,.07,0-.33.11-.73,0-1a20.15,20.15,0,0,0-1.46-2A1.47,1.47,0,0,1,27.9,130c.61-1.24,1-2.59,1.51-3.87a1.65,1.65,0,0,1,.85-.89c.93-.28,1.93-.37,2.87-.62.33-.09.59-.46.88-.7-.3-.28-.56-.7-.91-.81a17.45,17.45,0,0,0-2.29-.43,1.72,1.72,0,0,1-1.47-1.36,25.33,25.33,0,0,0-1.43-3.59,1.31,1.31,0,0,1,.09-1.67,16.13,16.13,0,0,0,1.53-2.15c.15-.25,0-.65,0-1-.32,0-.71,0-1,.1a19,19,0,0,0-2,1.43,1.51,1.51,0,0,1-1.82.14c-1.3-.61-2.7-1-4-1.53a1.35,1.35,0,0,1-.72-.8c-.26-1-.36-2-.64-3a1.25,1.25,0,0,0-.8-.7c-.15,0-.55.4-.65.69a9.46,9.46,0,0,0-.26,1.52c-.22,1.35-.43,2.67-2.29,2.59a1.69,1.69,0,0,0-1,.38c-2,1.41-3.74,1.28-5.39-.57-.19-.21-.79-.07-1.19-.09a3.27,3.27,0,0,0,.12,1.23,14.23,14.23,0,0,0,1.45,2,1.23,1.23,0,0,1,.1,1.54A20.52,20.52,0,0,0,8,121.39c-.19.7-.38,1.08-1.12,1.18a23.07,23.07,0,0,0-2.89.57,1.12,1.12,0,0,0-.66.7c0,.17.25.52.47.68a1.41,1.41,0,0,0,.75.15c2.24,0,3.3,1.12,4.09,3.32s1.25,3.91-.68,5.58a.46.46,0,0,0-.15.27c0,.32,0,.64,0,1,.34,0,.74.07,1-.09a15.11,15.11,0,0,0,2-1.44,1.44,1.44,0,0,1,1.8-.14c1.25.59,2.61,1,3.88,1.49a1.65,1.65,0,0,1,.86.9c.27.94.37,1.93.61,2.88A5.52,5.52,0,0,0,18.65,139.62Z"/><path class="b" d="M125.78,25.37l.57.75-.61.17Z"/><path class="c" d="M179.49,52.28c0-5.66-2.74-9.66-7.46-12.53-.91-.55-1,.06-1.26.66-1.09,3-2.19,5.92-3.27,8.88q-4.59,12.62-9.16,25.22c-2.24,6.16-4.47,12.34-6.77,18.49a5.59,5.59,0,0,1-1.44,2.12,2.39,2.39,0,0,1-3,0,2.71,2.71,0,0,1-.92-3.33c1.35-3.75,2.72-7.49,4.08-11.23l12.25-33.66c.45-1.26.91-2.53,1.24-3.82a6.29,6.29,0,0,0-2.82-7.12,6.65,6.65,0,0,0-7.55.5c-.47.37-1,1-1.46.93a6.41,6.41,0,0,1-2.46-.89c-.19-.11-.2-.85-.07-1.21,1.2-3.42,2.45-6.81,3.69-10.21,0-.15.14-.28.18-.43.79-2.84,1-2.08,3.23-1.36.91.29.84,1.11,1,1.79a6.19,6.19,0,0,0,2.66,4.2,6.43,6.43,0,0,0,8.15-.5c.5-.44.85-.92,1.72-.58,3,1.19,6.12,2.21,9.14,3.42a9.5,9.5,0,0,1,5.33,12c-1.19,3.58-2.55,7.1-3.87,10.64a3.09,3.09,0,0,1-.6.77,3.37,3.37,0,0,1-.48-1A12.18,12.18,0,0,1,179.49,52.28Z"/><path class="d" d="M43.67,177.49c.37,1.37.69,2.56,1,3.76.16.55.36,1.08.49,1.63a2.18,2.18,0,0,1-2.38,2.53c-.32-.06-.63-.49-.83-.83-.87-1.46-1.76-2.92-2.54-4.44A1.85,1.85,0,0,0,37.2,179a21.39,21.39,0,0,1-3.84.15A1.29,1.29,0,0,0,32,180c-.84,1.54-1.72,3.06-2.6,4.58-.66,1.13-.64,1.06-2.41.42-1-.36-1.07-.92-.81-1.79.44-1.49.82-3,1.23-4.48a1.6,1.6,0,0,0-.85-2,12,12,0,0,1-2.91-2.5,2.26,2.26,0,0,0-2.83-.78c-1.27.44-2.6.69-3.87,1.12a1.07,1.07,0,0,1-1.57-.73c-.15-.38-.29-.77-.47-1.14a.93.93,0,0,1,.46-1.4c1.22-.68,2.39-1.46,3.62-2.11a1.64,1.64,0,0,0,.93-1.89,41.38,41.38,0,0,1-.25-5.1,1.84,1.84,0,0,0-1.09-2c-1.05-.54-2.05-1.2-3.11-1.74s-.8-1.16-.45-1.94.53-1.76,1.8-1.36c1,.31,2,.56,3,.84a1.83,1.83,0,0,0,2.21-.84,29.84,29.84,0,0,1,3.85-4c.68-.6,1-1.08.67-2s-.6-2-.85-3c-.29-1.15,0-1.47,1.62-2.15.84-.36,1.22,0,1.58.7.49.91,1.08,1.77,1.57,2.68a1.46,1.46,0,0,0,1.48.85c2.17,0,4.33.22,6.49.25a1.68,1.68,0,0,0,1.21-.64,30.36,30.36,0,0,0,1.91-3.2c.7-1.32,1.53-.47,2.36-.24s1.18.69.87,1.6c-.35,1.08-.57,2.2-.92,3.28a1.64,1.64,0,0,0,.68,2.25,7.58,7.58,0,0,1,1.25,1.16c1.47,1.47,2.56,3.06,2.22,5.33a6,6,0,0,0,1.55,4.73A2.75,2.75,0,0,1,50,164.6c-.37,3.29-.4,3.29,2.54,4.86.73.39,1.45.79,2.17,1.19,1.29.72,1.29.73.77,2.15s-.53,1.46-2.1,1-3.1-.81-4.64-1.26a1.47,1.47,0,0,0-1.88.55c-.83,1.18-1.8,2.26-2.69,3.41A5.41,5.41,0,0,0,43.67,177.49Zm1.61-14.12c.25-5.38-4.45-10.48-10.41-10.49a10.5,10.5,0,1,0,.05,21C40.47,173.86,45.57,169,45.28,163.37Z"/><path class="e" d="M141.73,30c.47,2.32,1,4.64,1.4,7,.89,4.93,1.72,9.86,2.58,14.8L148.8,69.5c.2,1.12.46,2.23.59,3.36a2.83,2.83,0,0,1-2.16,3.28A2.75,2.75,0,0,1,144,73.78c-.76-4-1.35-7.94-2.18-11.88a34,34,0,0,1-.51-7.25c0-7.24,0-14.49,0-21.73,0-.93-.11-1.85-.18-2.78Z"/><path class="f" d="M141.73,30l-.62.1a5.88,5.88,0,0,0-6-3.8c-1.35.05-2.7-.06-4,0a3.28,3.28,0,0,1-2.63-1,12.23,12.23,0,0,1-2.9-13.81,1.47,1.47,0,0,1,.22-.41,8.27,8.27,0,0,1,.63-.55,3.06,3.06,0,0,1,.3.67c.38,2.08.79,4.16,1.08,6.26a2.47,2.47,0,0,0,1.7,2.15c2.43,1,4.85,2,7.24,3.15a1.45,1.45,0,0,0,1.92-.23c2.06-2,4.17-4,6.28-6a1.56,1.56,0,0,0,.49-1.65c-.44-2.13-.82-4.26-1.18-6.4a4.29,4.29,0,0,1,.1-1.12,5,5,0,0,1,.87.56,12.12,12.12,0,0,1,1.21,15.61,15.12,15.12,0,0,1-4.84,4L141,28l.46.63Z"/><path class="e" d="M141.49,28.59,141,28l.56-.36Z"/><path class="d" d="M18.65,139.62a5.52,5.52,0,0,1-.75-1.22c-.24-1-.34-1.94-.61-2.88a1.65,1.65,0,0,0-.86-.9c-1.27-.54-2.63-.9-3.88-1.49a1.44,1.44,0,0,0-1.8.14,15.11,15.11,0,0,1-2,1.44c-.25.16-.65.07-1,.09,0-.32,0-.64,0-1a.46.46,0,0,1,.15-.27c1.93-1.67,1.45-3.39.68-5.58s-1.85-3.28-4.09-3.32a1.41,1.41,0,0,1-.75-.15c-.22-.16-.52-.51-.47-.68a1.12,1.12,0,0,1,.66-.7,23.07,23.07,0,0,1,2.89-.57c.74-.1.93-.48,1.12-1.18a20.52,20.52,0,0,1,1.48-3.57,1.23,1.23,0,0,0-.1-1.54,14.23,14.23,0,0,1-1.45-2A3.27,3.27,0,0,1,7.78,113c.4,0,1-.12,1.19.09,1.65,1.85,3.41,2,5.39.57a1.69,1.69,0,0,1,1-.38c1.86.08,2.07-1.24,2.29-2.59a9.46,9.46,0,0,1,.26-1.52c.1-.29.5-.73.65-.69a1.25,1.25,0,0,1,.8.7c.28,1,.38,2,.64,3a1.35,1.35,0,0,0,.72.8c1.33.54,2.73.92,4,1.53a1.51,1.51,0,0,0,1.82-.14,19,19,0,0,1,2-1.43c.25-.15.64-.07,1-.1,0,.33.11.73,0,1A16.13,16.13,0,0,1,28,116.05a1.31,1.31,0,0,0-.09,1.67,25.33,25.33,0,0,1,1.43,3.59,1.72,1.72,0,0,0,1.47,1.36,17.45,17.45,0,0,1,2.29.43c.35.11.61.53.91.81-.29.24-.55.61-.88.7-.94.25-1.94.34-2.87.62a1.65,1.65,0,0,0-.85.89c-.54,1.28-.9,2.63-1.51,3.87a1.47,1.47,0,0,0,.17,1.81,20.15,20.15,0,0,1,1.46,2c.14.25,0,.65,0,1-.33,0-.73.08-1-.07-.7-.43-1.35-1-2-1.46a1.45,1.45,0,0,0-1.69-.19c-1.36.61-2.8,1-4.18,1.58a1.48,1.48,0,0,0-.69.87c-.25.95-.37,1.93-.61,2.88A6.15,6.15,0,0,1,18.65,139.62Zm8.3-15.8a8.16,8.16,0,0,0-8.37-8.28,8.31,8.31,0,0,0,.07,16.62A8.1,8.1,0,0,0,27,123.82Z"/><path class="a" d="M135.71,90.76v50.68c0,3.05-1.41,5.15-4,5.94a7,7,0,0,1-2,.24c-23.37,0-46.74,0-70.11,0a6.06,6.06,0,0,1-6-6.08q.09-50.91,0-101.82a6,6,0,0,1,6-6q35.14.09,70.27,0a6,6,0,0,1,6,6C135.67,56.77,135.71,73.76,135.71,90.76Zm-1.88.12V40.05c0-2.76-1.49-4.35-4.12-4.35q-35.06,0-70.1,0A4.63,4.63,0,0,0,58,36c-1.91.75-2.48,2.28-2.48,4.22q0,41,0,82.07c0,6.43,0,12.85,0,19.28a3.83,3.83,0,0,0,4.11,4.2q35.06,0,70.11,0a4.53,4.53,0,0,0,1.51-.22c1.79-.62,2.61-1.94,2.61-4.12Z"/><path class="a" d="M94.6,151.36a3.73,3.73,0,1,1-3.67,3.75A3.62,3.62,0,0,1,94.6,151.36Z"/><path class="a" d="M45.28,163.37c.29,5.67-4.81,10.49-10.36,10.5a10.5,10.5,0,1,1-.05-21C40.83,152.89,45.53,158,45.28,163.37Zm-1.89.1a8.42,8.42,0,0,0-8.5-8.63,8.3,8.3,0,0,0-8.58,8.55,8.54,8.54,0,0,0,17.08.08Z"/><path class="a" d="M27,123.82a8.1,8.1,0,0,1-8.3,8.34,8.31,8.31,0,0,1-.07-16.62A8.16,8.16,0,0,1,27,123.82Zm-1.88,0a6.36,6.36,0,0,0-6.39-6.41,6.46,6.46,0,0,0-6.46,6.39,6.43,6.43,0,1,0,12.85,0Z"/><path class="g" d="M43.39,163.47a8.54,8.54,0,0,1-17.08-.08,8.3,8.3,0,0,1,8.58-8.55A8.42,8.42,0,0,1,43.39,163.47Z"/><path class="h" d="M25.07,123.84a6.43,6.43,0,1,1-12.85,0,6.46,6.46,0,0,1,6.46-6.39A6.36,6.36,0,0,1,25.07,123.84Z"/><path class="d" d="M131.8,78.4c.06.62.16,1.23.16,1.85,0,19.73,0,39.47,0,59.21a4.46,4.46,0,0,1-4.4,4.46q-32.94-.07-65.9,0a4.42,4.42,0,0,1-4.38-4.31q.06-48.89,0-97.76a4.43,4.43,0,0,1,4.37-4.33q32.94.07,65.9,0A4.44,4.44,0,0,1,132,42c-.11,5.48,0,11,0,16.47a16.09,16.09,0,0,1-.16,1.69c-1.48-.24-1.69-.1-1.7,1.3q0,7.83,0,15.67C130.11,78.51,130.32,78.64,131.8,78.4ZM66.71,71.92c0,1.5,0,3,0,4.5s.62,2.16,2.13,2.17q4.42,0,8.84,0c1.45,0,2.07-.63,2.09-2.06,0-2,0-3.93,0-5.9a4.29,4.29,0,0,0-.36-1.1l.32-1.65c0-1.58-.48-2.32-1.77-2.33-3.15,0-6.31-.06-9.47,0a2,2,0,0,0-1.56,1c-.29,1.2-.6,2.51.19,3.7Zm0-20.52c0,1.5,0,3,0,4.5s.62,2.16,2.13,2.17q4.42,0,8.84,0c1.45,0,2.07-.64,2.09-2.07,0-2,0-3.92,0-5.89a4.29,4.29,0,0,0-.36-1.1l.32-1.66c0-1.58-.48-2.31-1.77-2.33-3.15,0-6.31-.06-9.47,0a2,2,0,0,0-1.56,1c-.29,1.2-.6,2.5.19,3.69Zm0,61.57c0,1.49,0,3,0,4.49s.62,2.17,2.13,2.18q4.42,0,8.84,0c1.45,0,2.07-.63,2.09-2.06,0-2,0-3.93,0-5.89a4.17,4.17,0,0,0-.36-1.1l.32-1.66c0-1.58-.48-2.31-1.77-2.33-3.15,0-6.31-.06-9.47,0a2,2,0,0,0-1.56,1c-.29,1.2-.6,2.5.19,3.69Zm13-20.31c0-1.55,0-3.1,0-4.66a1.75,1.75,0,0,0-1.9-1.93q-4.65,0-9.32,0a1.71,1.71,0,0,0-1.82,1.85q0,4.67,0,9.33A1.71,1.71,0,0,0,68.5,99.1c3.11,0,6.22,0,9.32,0a1.75,1.75,0,0,0,1.9-1.94C79.75,95.67,79.73,94.17,79.73,92.66ZM103.06,73h18.33c1.18,0,1.34-.2,1.25-1.17s-.77-.68-1.27-.68H84.71c-1.14,0-1.47.39-1.23,1.32s.92.52,1.41.52Q94,73,103.06,73Zm-.17-24.25h18.5c.73,0,1.31,0,1.28-1s-.67-.87-1.28-.87H84.87c-1.31,0-1.63.32-1.4,1.33s.9.53,1.39.54C90.87,48.76,96.88,48.75,102.89,48.75Zm.17,3.72h18.33c.73,0,1.31,0,1.27-1s-.7-.84-1.29-.84H84.72c-1.15,0-1.48.39-1.24,1.33s.92.52,1.41.52C91,52.48,97,52.47,103.06,52.47Zm.09,1.86H85.28a3,3,0,0,0-1.08,0,1.24,1.24,0,0,0-.71.73c-.17,1,0,1.11,1.44,1.11h36.52c1.12,0,1.32-.27,1.2-1.23s-.82-.63-1.32-.64Zm-.1,20.52h-2.8q-7.77,0-15.54,0c-.73,0-1.31,0-1.28,1s.68.86,1.28.86h36.68c1.15,0,1.47-.37,1.24-1.32s-.9-.54-1.39-.54C115.17,74.85,109.11,74.86,103.05,74.85Zm0-7.46h-2.8c-5.18,0-10.36,0-15.54,0-.73,0-1.31,0-1.28,1s.68.86,1.28.86h16.63q10,0,20,0c1.15,0,1.47-.37,1.24-1.33s-.9-.53-1.4-.53C115.17,67.38,109.11,67.39,103.05,67.39Zm0,20.53H84.71c-1.18,0-1.34.21-1.25,1.17s.78.67,1.28.68h36.65c1.14,0,1.48-.39,1.23-1.33s-.92-.51-1.41-.51Q112.12,87.91,103,87.92Zm0,5.61h2.8c5.18,0,10.36,0,15.54,0,.74,0,1.31,0,1.28-1s-.67-.86-1.28-.86c-5.54,0-11.09,0-16.63,0q-10,0-20.05,0c-1.15,0-1.46.37-1.24,1.33s.91.53,1.4.53Q94,93.54,103.05,93.53Zm-.16,3.72H119c.93,0,1.86,0,2.79,0,.61,0,.78-.27.82-.84.1-1.36-.87-1-1.57-1q-18,0-36,0h-.93c-.71,0-.73.53-.63,1a1.41,1.41,0,0,0,.62.83,2.7,2.7,0,0,0,1.07,0Zm.15,18.66H84.71c-1.18,0-1.33.21-1.25,1.18s.77.67,1.28.67c5.43,0,10.87,0,16.31,0q10.17,0,20.34,0c1.14,0,1.48-.39,1.23-1.33s-.92-.51-1.41-.52C115.15,115.9,109.1,115.91,103,115.91Zm-.16-5.6h15.84c1,0,2,0,3,0,.76,0,1-.28,1-1,0-1-.66-.86-1.27-.86H84.12c-.7,0-.73.54-.63,1a1.41,1.41,0,0,0,.62.84,2.69,2.69,0,0,0,1.07,0Zm0,3.74h2.8c5.23,0,10.47,0,15.7,0,.73,0,1.31,0,1.28-1s-.67-.86-1.28-.86H106.16q-10.72,0-21.44,0c-1.16,0-1.47.37-1.25,1.32s.9.54,1.4.54C90.88,114.06,96.88,114.05,102.89,114.05Zm13,15.25a1.18,1.18,0,0,0-1.21,1.4c.07.94-.4,1.13-1.21,1.1-1-.05-2.07,0-3.1,0-1.81,0-2.64.6-2.62,1.88s.84,1.8,2.69,1.8c1,0,2.07,0,3.1,0,.75,0,1.09.16,1.15,1,.1,1.48.77,1.84,2,1.13,1.63-.9,3.22-1.85,4.78-2.87,1.14-.74,1.11-1.5-.06-2.26-1.52-1-3.09-1.88-4.64-2.8A6.38,6.38,0,0,0,115.87,129.3Z"/><path class="a" d="M131.8,78.4c-1.48.24-1.69.11-1.7-1.3q0-7.83,0-15.67c0-1.4.22-1.54,1.7-1.3a10.22,10.22,0,0,1,.17,1.22q0,7.92,0,15.83A10.22,10.22,0,0,1,131.8,78.4Z"/><path class="i" d="M79.73,92.66c0,1.51,0,3,0,4.51a1.75,1.75,0,0,1-1.9,1.94c-3.1,0-6.21,0-9.32,0a1.71,1.71,0,0,1-1.82-1.85q0-4.66,0-9.33a1.71,1.71,0,0,1,1.82-1.85q4.66,0,9.32,0A1.75,1.75,0,0,1,79.72,88C79.75,89.56,79.73,91.11,79.73,92.66Z"/><path class="a" d="M103.06,73Q94,73,84.89,73c-.49,0-1.19.33-1.41-.52s.09-1.32,1.23-1.32h36.66c.5,0,1.19-.26,1.27.68S122.57,73,121.39,73H103.06Z"/><path class="a" d="M102.89,48.75c-6,0-12,0-18,0-.49,0-1.19.33-1.39-.54s.09-1.33,1.4-1.33h36.52c.61,0,1.25-.14,1.28.87s-.55,1-1.28,1h-18.5Z"/><path class="a" d="M103.06,52.47c-6.06,0-12.11,0-18.17,0-.49,0-1.19.33-1.41-.52s.09-1.32,1.24-1.33h36.65c.59,0,1.25-.17,1.29.84s-.54,1-1.27,1H103.06Z"/><path class="a" d="M103.15,54.33h18.18c.5,0,1.2-.28,1.32.64s-.08,1.22-1.2,1.23H84.93c-1.4,0-1.61-.14-1.44-1.11a1.24,1.24,0,0,1,.71-.73,3,3,0,0,1,1.08,0Z"/><path class="a" d="M103.05,74.86c6.06,0,12.12,0,18.19,0,.49,0,1.19-.34,1.39.54s-.09,1.32-1.24,1.32H84.71c-.6,0-1.24.15-1.28-.86s.55-1,1.28-1q7.77,0,15.54,0Z"/><path class="a" d="M103.05,67.39c6.06,0,12.12,0,18.18,0,.5,0,1.2-.34,1.4.53s-.09,1.33-1.24,1.33q-10,0-20,0H84.71c-.6,0-1.24.15-1.28-.86s.55-1,1.28-1c5.18,0,10.36,0,15.54,0Z"/><path class="a" d="M103,87.92q9.08,0,18.17,0c.49,0,1.19-.33,1.41.51s-.09,1.33-1.23,1.33H84.74c-.5,0-1.19.26-1.28-.68s.07-1.17,1.25-1.17H103Z"/><path class="a" d="M103.05,93.53q-9.09,0-18.18,0c-.49,0-1.2.34-1.4-.53s.09-1.33,1.24-1.33q10,0,20.05,0c5.54,0,11.09,0,16.63,0,.61,0,1.25-.15,1.28.86s-.54,1-1.28,1c-5.18,0-10.36,0-15.54,0Z"/><path class="a" d="M102.89,97.25H85.18a2.7,2.7,0,0,1-1.07,0,1.41,1.41,0,0,1-.62-.83c-.1-.45-.08-1,.63-1h.93q18,0,36,0c.7,0,1.67-.34,1.57,1,0,.57-.21.86-.82.84-.93,0-1.86,0-2.79,0Z"/><path class="a" d="M103,115.91c6.06,0,12.11,0,18.17,0,.49,0,1.19-.33,1.41.52s-.09,1.33-1.23,1.33q-10.17,0-20.34,0c-5.44,0-10.88,0-16.31,0-.51,0-1.19.26-1.28-.67s.07-1.18,1.25-1.18H103Z"/><path class="a" d="M102.88,110.31H85.18a2.69,2.69,0,0,1-1.07,0,1.41,1.41,0,0,1-.62-.84c-.1-.44-.07-1,.63-1h37.27c.61,0,1.28-.15,1.27.86,0,.73-.23,1-1,1-1,0-2,0-3,0Z"/><path class="a" d="M102.89,114.05c-6,0-12,0-18,0-.5,0-1.2.34-1.4-.54s.09-1.32,1.25-1.32q10.73,0,21.44,0h15.23c.61,0,1.25-.14,1.28.86s-.55,1-1.28,1c-5.23,0-10.47,0-15.7,0Z"/><path class="a" d="M115.87,129.3a6.38,6.38,0,0,1,.91.38c1.55.92,3.12,1.82,4.64,2.8,1.17.76,1.2,1.52.06,2.26-1.56,1-3.15,2-4.78,2.87-1.26.71-1.93.35-2-1.13-.06-.85-.4-1-1.15-1-1,0-2.06,0-3.1,0-1.85,0-2.67-.55-2.69-1.8s.81-1.87,2.62-1.88c1,0,2.07,0,3.1,0,.81,0,1.28-.16,1.21-1.1A1.18,1.18,0,0,1,115.87,129.3Z"/><path class="h" d="M67.07,111.31c-.79-1.19-.48-2.49-.19-3.69a2,2,0,0,1,1.56-1c3.16-.09,6.32-.07,9.47,0,1.29,0,1.79.75,1.77,2.33-.84-.73-1.56-.53-2.27.24-1.54,1.67-3.13,3.28-4.66,5-.6.66-1,.66-1.61,0s-1.45-1.47-2.14-2.23A1.67,1.67,0,0,0,67.07,111.31Z"/><path class="h" d="M79.36,110.58a4.17,4.17,0,0,1,.36,1.1c0,2,0,3.93,0,5.89,0,1.43-.64,2.06-2.09,2.06q-4.41,0-8.84,0c-1.51,0-2.12-.63-2.13-2.18s0-3,0-4.49l3.81,3.82c1.33,1.34,1.53,1.35,2.84,0C75.37,114.73,77.36,112.65,79.36,110.58Z"/><path class="a" d="M79.36,110.58c-2,2.07-4,4.15-6,6.21-1.31,1.35-1.51,1.34-2.84,0L66.71,113l.36-1.66a1.67,1.67,0,0,1,1.93.57c.69.76,1.46,1.45,2.14,2.23s1,.67,1.61,0c1.53-1.68,3.12-3.29,4.66-5,.71-.77,1.43-1,2.27-.24Z"/><path class="a" d="M79.36,69.53c-2,2.08-4,4.15-6,6.22-1.31,1.35-1.51,1.34-2.84,0l-3.81-3.82.36-1.65a1.67,1.67,0,0,1,1.93.56c.69.77,1.46,1.46,2.14,2.24s1,.66,1.61,0c1.53-1.67,3.12-3.29,4.66-4.95.71-.77,1.43-1,2.27-.24Z"/><path class="a" d="M79.36,49c-2,2.07-4,4.15-6,6.21-1.31,1.35-1.51,1.34-2.84,0L66.71,51.4l.36-1.66a1.69,1.69,0,0,1,1.93.57c.69.77,1.46,1.46,2.14,2.24s1,.66,1.61,0c1.53-1.68,3.12-3.29,4.66-5,.71-.77,1.43-1,2.27-.24Z"/></svg>